#N canvas -9 -9 1920 976 12;
#N canvas 27 164 896 504 presentation 1;
#X obj 117 109 tgl 15 0 g1 empty empty 17 7 0 10 -262144 -1 -1 0 1
;
#X obj 144 109 tgl 15 0 g2 empty empty 17 7 0 10 -262144 -1 -1 1 1
;
#X obj 169 109 tgl 15 0 g3 empty empty 17 7 0 10 -262144 -1 -1 1 1
;
#X obj 196 109 tgl 15 0 g4 empty empty 17 7 0 10 -262144 -1 -1 1 1
;
#X obj 118 136 tgl 15 0 b1 empty empty 17 7 0 10 -262144 -1 -1 0 1
;
#X obj 145 136 tgl 15 0 b2 empty empty 17 7 0 10 -262144 -1 -1 0 1
;
#X obj 170 136 tgl 15 0 b3 empty empty 17 7 0 10 -262144 -1 -1 1 1
;
#X obj 197 136 tgl 15 0 b4 empty empty 17 7 0 10 -262144 -1 -1 0 1
;
#X obj 117 162 tgl 15 0 c1 empty empty 17 7 0 10 -262144 -1 -1 1 1
;
#X obj 144 162 tgl 15 0 c2 empty empty 17 7 0 10 -262144 -1 -1 1 1
;
#X obj 169 162 tgl 15 0 c3 empty empty 17 7 0 10 -262144 -1 -1 0 1
;
#X obj 196 162 tgl 15 0 c4 empty empty 17 7 0 10 -262144 -1 -1 0 1
;
#X obj 118 189 tgl 15 0 d1 empty empty 17 7 0 10 -262144 -1 -1 0 1
;
#X obj 145 189 tgl 15 0 d2 empty empty 17 7 0 10 -262144 -1 -1 0 1
;
#X obj 170 189 tgl 15 0 d3 empty empty 17 7 0 10 -262144 -1 -1 0 1
;
#X obj 197 189 tgl 15 0 d4 empty empty 17 7 0 10 -262144 -1 -1 0 1
;
#X obj 117 81 bng 15 250 50 0 empty i empty 17 7 0 10 -262144 -1 -1
;
#X obj 143 81 bng 15 250 50 0 empty ii empty 17 7 0 10 -262144 -1 -1
;
#X obj 170 81 bng 15 250 50 0 empty iii empty 17 7 0 10 -262144 -1
-1;
#X obj 196 81 bng 15 250 50 0 empty iv empty 17 7 0 10 -262144 -1 -1
;
#X obj 223 109 tgl 15 0 g5 empty empty 17 7 0 10 -262144 -1 -1 0 1
;
#X obj 224 136 tgl 15 0 b5 empty empty 17 7 0 10 -262144 -1 -1 0 1
;
#X obj 223 162 tgl 15 0 c5 empty empty 17 7 0 10 -262144 -1 -1 1 1
;
#X obj 224 189 tgl 15 0 d5 empty empty 17 7 0 10 -262144 -1 -1 0 1
;
#X obj 223 81 bng 15 250 50 0 empty v empty 17 7 0 10 -262144 -1 -1
;
#X obj 119 220 tgl 15 0 e1 empty empty 17 7 0 10 -262144 -1 -1 0 1
;
#X obj 146 220 tgl 15 0 e2 empty empty 17 7 0 10 -262144 -1 -1 0 1
;
#X obj 171 220 tgl 15 0 e3 empty empty 17 7 0 10 -262144 -1 -1 0 1
;
#X obj 198 220 tgl 15 0 e4 empty empty 17 7 0 10 -262144 -1 -1 0 1
;
#X obj 225 220 tgl 15 0 e5 empty empty 17 7 0 10 -262144 -1 -1 0 1
;
#X obj 268 109 tgl 15 0 g12 empty empty 17 7 0 10 -262144 -1 -1 0 1
;
#X obj 295 109 tgl 15 0 g22 empty empty 17 7 0 10 -262144 -1 -1 1 1
;
#X obj 320 109 tgl 15 0 g32 empty empty 17 7 0 10 -262144 -1 -1 1 1
;
#X obj 347 109 tgl 15 0 g42 empty empty 17 7 0 10 -262144 -1 -1 1 1
;
#X obj 269 136 tgl 15 0 b12 empty empty 17 7 0 10 -262144 -1 -1 0 1
;
#X obj 296 136 tgl 15 0 b22 empty empty 17 7 0 10 -262144 -1 -1 0 1
;
#X obj 321 136 tgl 15 0 b32 empty empty 17 7 0 10 -262144 -1 -1 1 1
;
#X obj 348 136 tgl 15 0 b42 empty empty 17 7 0 10 -262144 -1 -1 0 1
;
#X obj 268 162 tgl 15 0 c12 empty empty 17 7 0 10 -262144 -1 -1 1 1
;
#X obj 295 162 tgl 15 0 c22 empty empty 17 7 0 10 -262144 -1 -1 0 1
;
#X obj 320 162 tgl 15 0 c32 empty empty 17 7 0 10 -262144 -1 -1 0 1
;
#X obj 347 162 tgl 15 0 c42 empty empty 17 7 0 10 -262144 -1 -1 0 1
;
#X obj 269 189 tgl 15 0 d12 empty empty 17 7 0 10 -262144 -1 -1 0 1
;
#X obj 296 189 tgl 15 0 d22 empty empty 17 7 0 10 -262144 -1 -1 0 1
;
#X obj 321 189 tgl 15 0 d32 empty empty 17 7 0 10 -262144 -1 -1 0 1
;
#X obj 348 189 tgl 15 0 d42 empty empty 17 7 0 10 -262144 -1 -1 0 1
;
#X obj 268 81 bng 15 250 50 0 empty i2 empty 17 7 0 10 -262144 -1 -1
;
#X obj 294 81 bng 15 250 50 0 empty ii2 empty 17 7 0 10 -262144 -1
-1;
#X obj 321 81 bng 15 250 50 0 empty iii2 empty 17 7 0 10 -262144 -1
-1;
#X obj 347 81 bng 15 250 50 0 empty iv2 empty 17 7 0 10 -262144 -1
-1;
#X obj 374 109 tgl 15 0 g52 empty empty 17 7 0 10 -262144 -1 -1 0 1
;
#X obj 375 136 tgl 15 0 b52 empty empty 17 7 0 10 -262144 -1 -1 0 1
;
#X obj 374 162 tgl 15 0 c52 empty empty 17 7 0 10 -262144 -1 -1 1 1
;
#X obj 375 189 tgl 15 0 d52 empty empty 17 7 0 10 -262144 -1 -1 0 1
;
#X obj 374 81 bng 15 250 50 0 empty v2 empty 17 7 0 10 -262144 -1 -1
;
#X obj 270 220 tgl 15 0 e12 empty empty 17 7 0 10 -262144 -1 -1 0 1
;
#X obj 297 220 tgl 15 0 e22 empty empty 17 7 0 10 -262144 -1 -1 0 1
;
#X obj 322 220 tgl 15 0 e32 empty empty 17 7 0 10 -262144 -1 -1 0 1
;
#X obj 349 220 tgl 15 0 e42 empty empty 17 7 0 10 -262144 -1 -1 0 1
;
#X obj 377 220 tgl 15 0 e52 empty empty 17 7 0 10 -262144 -1 -1 0 1
;
#X obj 416 108 tgl 15 0 g13 empty empty 17 7 0 10 -262144 -1 -1 0 1
;
#X obj 443 108 tgl 15 0 g23 empty empty 17 7 0 10 -262144 -1 -1 1 1
;
#X obj 468 108 tgl 15 0 g33 empty empty 17 7 0 10 -262144 -1 -1 1 1
;
#X obj 495 108 tgl 15 0 g43 empty empty 17 7 0 10 -262144 -1 -1 1 1
;
#X obj 417 135 tgl 15 0 b13 empty empty 17 7 0 10 -262144 -1 -1 0 1
;
#X obj 444 135 tgl 15 0 b23 empty empty 17 7 0 10 -262144 -1 -1 0 1
;
#X obj 469 135 tgl 15 0 b33 empty empty 17 7 0 10 -262144 -1 -1 1 1
;
#X obj 496 135 tgl 15 0 b43 empty empty 17 7 0 10 -262144 -1 -1 0 1
;
#X obj 416 161 tgl 15 0 c13 empty empty 17 7 0 10 -262144 -1 -1 1 1
;
#X obj 443 161 tgl 15 0 c23 empty empty 17 7 0 10 -262144 -1 -1 1 1
;
#X obj 468 161 tgl 15 0 c33 empty empty 17 7 0 10 -262144 -1 -1 0 1
;
#X obj 495 161 tgl 15 0 c43 empty empty 17 7 0 10 -262144 -1 -1 1 1
;
#X obj 417 188 tgl 15 0 d13 empty empty 17 7 0 10 -262144 -1 -1 0 1
;
#X obj 444 188 tgl 15 0 d23 empty empty 17 7 0 10 -262144 -1 -1 0 1
;
#X obj 469 188 tgl 15 0 d33 empty empty 17 7 0 10 -262144 -1 -1 0 1
;
#X obj 496 188 tgl 15 0 d43 empty empty 17 7 0 10 -262144 -1 -1 0 1
;
#X obj 416 80 bng 15 250 50 0 empty i3 empty 17 7 0 10 -262144 -1 -1
;
#X obj 442 80 bng 15 250 50 0 empty ii3 empty 17 7 0 10 -262144 -1
-1;
#X obj 469 80 bng 15 250 50 0 empty iii3 empty 17 7 0 10 -262144 -1
-1;
#X obj 495 80 bng 15 250 50 0 empty iv3 empty 17 7 0 10 -262144 -1
-1;
#X obj 522 108 tgl 15 0 g53 empty empty 17 7 0 10 -262144 -1 -1 0 1
;
#X obj 523 135 tgl 15 0 b53 empty empty 17 7 0 10 -262144 -1 -1 0 1
;
#X obj 522 161 tgl 15 0 c53 empty empty 17 7 0 10 -262144 -1 -1 1 1
;
#X obj 523 188 tgl 15 0 d53 empty empty 17 7 0 10 -262144 -1 -1 0 1
;
#X obj 522 80 bng 15 250 50 0 empty v3 empty 17 7 0 10 -262144 -1 -1
;
#X obj 418 219 tgl 15 0 e13 empty empty 17 7 0 10 -262144 -1 -1 0 1
;
#X obj 445 219 tgl 15 0 e23 empty empty 17 7 0 10 -262144 -1 -1 0 1
;
#X obj 470 219 tgl 15 0 e33 empty empty 17 7 0 10 -262144 -1 -1 0 1
;
#X obj 497 219 tgl 15 0 e43 empty empty 17 7 0 10 -262144 -1 -1 0 1
;
#X obj 524 219 tgl 15 0 e53 empty empty 17 7 0 10 -262144 -1 -1 0 1
;
#X obj 567 108 tgl 15 0 g14 empty empty 17 7 0 10 -262144 -1 -1 0 1
;
#X obj 594 108 tgl 15 0 g24 empty empty 17 7 0 10 -262144 -1 -1 1 1
;
#X obj 619 108 tgl 15 0 g34 empty empty 17 7 0 10 -262144 -1 -1 0 1
;
#X obj 646 108 tgl 15 0 g44 empty empty 17 7 0 10 -262144 -1 -1 1 1
;
#X obj 568 135 tgl 15 0 b14 empty empty 17 7 0 10 -262144 -1 -1 0 1
;
#X obj 595 135 tgl 15 0 b24 empty empty 17 7 0 10 -262144 -1 -1 0 1
;
#X obj 620 135 tgl 15 0 b34 empty empty 17 7 0 10 -262144 -1 -1 1 1
;
#X obj 647 135 tgl 15 0 b44 empty empty 17 7 0 10 -262144 -1 -1 0 1
;
#X obj 567 161 tgl 15 0 c14 empty empty 17 7 0 10 -262144 -1 -1 1 1
;
#X obj 594 161 tgl 15 0 c24 empty empty 17 7 0 10 -262144 -1 -1 0 1
;
#X obj 619 161 tgl 15 0 c34 empty empty 17 7 0 10 -262144 -1 -1 1 1
;
#X obj 646 161 tgl 15 0 c44 empty empty 17 7 0 10 -262144 -1 -1 0 1
;
#X obj 568 188 tgl 15 0 d14 empty empty 17 7 0 10 -262144 -1 -1 0 1
;
#X obj 595 188 tgl 15 0 d24 empty empty 17 7 0 10 -262144 -1 -1 0 1
;
#X obj 620 188 tgl 15 0 d34 empty empty 17 7 0 10 -262144 -1 -1 0 1
;
#X obj 647 188 tgl 15 0 d44 empty empty 17 7 0 10 -262144 -1 -1 0 1
;
#X obj 567 80 bng 15 250 50 0 empty i4 empty 17 7 0 10 -262144 -1 -1
;
#X obj 593 80 bng 15 250 50 0 empty ii4 empty 17 7 0 10 -262144 -1
-1;
#X obj 620 80 bng 15 250 50 0 empty iii4 empty 17 7 0 10 -262144 -1
-1;
#X obj 646 80 bng 15 250 50 0 empty iv4 empty 17 7 0 10 -262144 -1
-1;
#X obj 673 108 tgl 15 0 g54 empty empty 17 7 0 10 -262144 -1 -1 0 1
;
#X obj 674 135 tgl 15 0 b54 empty empty 17 7 0 10 -262144 -1 -1 0 1
;
#X obj 673 161 tgl 15 0 c54 empty empty 17 7 0 10 -262144 -1 -1 1 1
;
#X obj 674 188 tgl 15 0 d54 empty empty 17 7 0 10 -262144 -1 -1 0 1
;
#X obj 673 80 bng 15 250 50 0 empty v4 empty 17 7 0 10 -262144 -1 -1
;
#X obj 569 219 tgl 15 0 e14 empty empty 17 7 0 10 -262144 -1 -1 0 1
;
#X obj 596 219 tgl 15 0 e24 empty empty 17 7 0 10 -262144 -1 -1 0 1
;
#X obj 621 219 tgl 15 0 e34 empty empty 17 7 0 10 -262144 -1 -1 0 1
;
#X obj 648 219 tgl 15 0 e44 empty empty 17 7 0 10 -262144 -1 -1 0 1
;
#X obj 675 219 tgl 15 0 e54 empty empty 17 7 0 10 -262144 -1 -1 0 1
;
#X text 41 79 metronome;
#X text 48 107 kick;
#X text 45 135 snare;
#X text 44 186 guitar;
#X text 44 215 harp;
#X text 45 161 hihat;
#N canvas 941 33 481 362 main 1;
#N canvas 529 98 1198 805 5beats 0;
#X obj 275 553 dac~;
#X obj 134 228 f;
#X obj 183 223 + 1;
#X obj 40 306 s i;
#X obj 41 344 s ii;
#X obj 42 379 s iii;
#X obj 42 424 s iv;
#N canvas 811 50 965 786 ins1 0;
#X obj 63 263 readsf~;
#X obj 63 286 *~ 0.1;
#X obj 58 178 spigot;
#X obj 114 176 spigot;
#X obj 168 174 spigot;
#X obj 220 174 spigot;
#X obj 232 102 r g1;
#X obj 272 103 r g2;
#X obj 231 130 r g3;
#X obj 270 129 r g4;
#X obj 63 349 outlet~;
#X obj 38 35 inlet;
#X obj 84 35 inlet;
#X obj 128 35 inlet;
#X obj 172 37 inlet;
#X msg 61 231 open samples/kick.wav \, 1;
#X obj 218 40 inlet;
#X obj 271 175 spigot;
#X obj 309 133 r g5;
#X connect 0 0 1 0;
#X connect 1 0 10 0;
#X connect 2 0 15 0;
#X connect 3 0 15 0;
#X connect 4 0 15 0;
#X connect 5 0 15 0;
#X connect 6 0 2 1;
#X connect 7 0 3 1;
#X connect 8 0 4 1;
#X connect 9 0 5 1;
#X connect 11 0 2 0;
#X connect 12 0 3 0;
#X connect 13 0 4 0;
#X connect 14 0 5 0;
#X connect 15 0 0 0;
#X connect 16 0 17 0;
#X connect 17 0 15 0;
#X connect 18 0 17 1;
#X restore 208 431 pd ins1;
#N canvas 934 95 965 786 ins1 0;
#X obj 63 263 readsf~;
#X obj 58 178 spigot;
#X obj 114 176 spigot;
#X obj 168 174 spigot;
#X obj 220 174 spigot;
#X obj 63 349 outlet~;
#X obj 38 35 inlet;
#X obj 84 35 inlet;
#X obj 128 35 inlet;
#X obj 172 37 inlet;
#X obj 232 102 r b1;
#X obj 272 103 r b2;
#X obj 231 130 r b3;
#X obj 270 129 r b4;
#X msg 61 231 open samples/snare.wav \, 1;
#X obj 218 38 inlet;
#X obj 309 129 r b5;
#X obj 273 177 spigot;
#X obj 63 286 *~ 0.07;
#X connect 0 0 18 0;
#X connect 1 0 14 0;
#X connect 2 0 14 0;
#X connect 3 0 14 0;
#X connect 4 0 14 0;
#X connect 6 0 1 0;
#X connect 7 0 2 0;
#X connect 8 0 3 0;
#X connect 9 0 4 0;
#X connect 10 0 1 1;
#X connect 11 0 2 1;
#X connect 12 0 3 1;
#X connect 13 0 4 1;
#X connect 14 0 0 0;
#X connect 15 0 17 0;
#X connect 16 0 17 1;
#X connect 17 0 14 0;
#X connect 18 0 5 0;
#X restore 271 430 pd ins1;
#N canvas 149 177 965 786 ins1 0;
#X obj 63 263 readsf~;
#X obj 63 286 *~ 0.1;
#X obj 58 178 spigot;
#X obj 114 176 spigot;
#X obj 168 174 spigot;
#X obj 220 174 spigot;
#X obj 63 349 outlet~;
#X obj 38 35 inlet;
#X obj 84 35 inlet;
#X obj 128 35 inlet;
#X obj 172 37 inlet;
#X obj 232 102 r c1;
#X obj 272 103 r c2;
#X obj 231 130 r c3;
#X obj 270 129 r c4;
#X msg 61 231 open samples/hihat.wav \, 1;
#X obj 223 37 inlet;
#X obj 279 174 spigot;
#X obj 314 129 r c5;
#X connect 0 0 1 0;
#X connect 1 0 6 0;
#X connect 2 0 15 0;
#X connect 3 0 15 0;
#X connect 4 0 15 0;
#X connect 5 0 15 0;
#X connect 7 0 2 0;
#X connect 8 0 3 0;
#X connect 9 0 4 0;
#X connect 10 0 5 0;
#X connect 11 0 2 1;
#X connect 12 0 3 1;
#X connect 13 0 4 1;
#X connect 14 0 5 1;
#X connect 15 0 0 0;
#X connect 16 0 17 0;
#X connect 17 0 15 0;
#X connect 18 0 17 1;
#X restore 329 429 pd ins1;
#X obj 134 253 mod 5;
#X obj 134 280 sel 0 1 2 3 4;
#X obj 41 460 s v;
#N canvas 149 177 965 786 ins1 0;
#X obj 63 263 readsf~;
#X obj 63 286 *~ 0.1;
#X obj 58 178 spigot;
#X obj 114 176 spigot;
#X obj 168 174 spigot;
#X obj 220 174 spigot;
#X obj 63 349 outlet~;
#X obj 38 35 inlet;
#X obj 84 35 inlet;
#X obj 128 35 inlet;
#X obj 172 37 inlet;
#X obj 223 37 inlet;
#X obj 279 174 spigot;
#X obj 232 102 r d1;
#X obj 272 103 r d2;
#X obj 231 130 r d3;
#X obj 270 129 r d4;
#X obj 314 128 r d5;
#X msg 61 231 open samples/gtr-57.wav \, 1;
#X connect 0 0 1 0;
#X connect 1 0 6 0;
#X connect 2 0 18 0;
#X connect 3 0 18 0;
#X connect 4 0 18 0;
#X connect 5 0 18 0;
#X connect 7 0 2 0;
#X connect 8 0 3 0;
#X connect 9 0 4 0;
#X connect 10 0 5 0;
#X connect 11 0 12 0;
#X connect 12 0 18 0;
#X connect 13 0 2 1;
#X connect 14 0 3 1;
#X connect 15 0 4 1;
#X connect 16 0 5 1;
#X connect 17 0 12 1;
#X connect 18 0 0 0;
#X restore 386 430 pd ins1;
#N canvas 149 177 965 786 ins1 0;
#X obj 63 263 readsf~;
#X obj 63 286 *~ 0.1;
#X obj 58 178 spigot;
#X obj 114 176 spigot;
#X obj 168 174 spigot;
#X obj 220 174 spigot;
#X obj 63 349 outlet~;
#X obj 38 35 inlet;
#X obj 84 35 inlet;
#X obj 128 35 inlet;
#X obj 172 37 inlet;
#X obj 223 37 inlet;
#X obj 279 174 spigot;
#X obj 232 102 r e1;
#X obj 272 103 r e2;
#X obj 231 130 r e3;
#X obj 270 129 r e4;
#X obj 314 129 r e5;
#X msg 61 231 open samples/harp-A69.wav \, 1;
#X connect 0 0 1 0;
#X connect 1 0 6 0;
#X connect 2 0 18 0;
#X connect 3 0 18 0;
#X connect 4 0 18 0;
#X connect 5 0 18 0;
#X connect 7 0 2 0;
#X connect 8 0 3 0;
#X connect 9 0 4 0;
#X connect 10 0 5 0;
#X connect 11 0 12 0;
#X connect 12 0 18 0;
#X connect 13 0 2 1;
#X connect 14 0 3 1;
#X connect 15 0 4 1;
#X connect 16 0 5 1;
#X connect 17 0 12 1;
#X connect 18 0 0 0;
#X restore 443 430 pd ins1;
#X obj 84 4 inlet;
#X msg 145 68 0;
#X msg 274 186 -1;
#X obj 205 138 r tempo;
#X obj 133 189 metro 250;
#X obj 145 42 del 1250;
#X obj 244 22 r tempo;
#X obj 244 48 * 5;
#X connect 1 0 2 0;
#X connect 1 0 10 0;
#X connect 2 0 1 1;
#X connect 7 0 0 0;
#X connect 7 0 0 1;
#X connect 8 0 0 0;
#X connect 8 0 0 1;
#X connect 9 0 0 0;
#X connect 9 0 0 1;
#X connect 10 0 11 0;
#X connect 11 0 3 0;
#X connect 11 0 7 0;
#X connect 11 0 8 0;
#X connect 11 0 9 0;
#X connect 11 0 13 0;
#X connect 11 0 14 0;
#X connect 11 1 4 0;
#X connect 11 1 7 1;
#X connect 11 1 8 1;
#X connect 11 1 9 1;
#X connect 11 1 13 1;
#X connect 11 1 14 1;
#X connect 11 2 5 0;
#X connect 11 2 7 2;
#X connect 11 2 8 2;
#X connect 11 2 9 2;
#X connect 11 2 13 2;
#X connect 11 2 14 2;
#X connect 11 3 6 0;
#X connect 11 3 7 3;
#X connect 11 3 8 3;
#X connect 11 3 9 3;
#X connect 11 3 14 3;
#X connect 11 3 13 3;
#X connect 11 4 12 0;
#X connect 11 4 7 4;
#X connect 11 4 9 4;
#X connect 11 4 13 4;
#X connect 11 4 14 4;
#X connect 11 4 8 4;
#X connect 13 0 0 0;
#X connect 13 0 0 1;
#X connect 14 0 0 0;
#X connect 14 0 0 1;
#X connect 15 0 19 0;
#X connect 15 0 20 0;
#X connect 16 0 19 0;
#X connect 17 0 1 0;
#X connect 18 0 19 1;
#X connect 19 0 1 0;
#X connect 20 0 16 0;
#X connect 21 0 22 0;
#X connect 22 0 20 1;
#X restore 74 261 pd 5beats;
#X obj 148 106 f;
#X obj 195 107 + 1;
#X obj 147 139 mod 4;
#X obj 146 173 sel 0 1 2 3;
#X obj 74 77 tgl 15 0 empty empty empty 17 7 0 10 -262144 -1 -1 1 1
;
#N canvas 926 70 556 805 5beats 0;
#X obj 275 553 dac~;
#X obj 134 228 f;
#X obj 183 223 + 1;
#N canvas 811 50 965 786 ins1 0;
#X obj 63 263 readsf~;
#X obj 63 286 *~ 0.1;
#X obj 58 178 spigot;
#X obj 114 176 spigot;
#X obj 168 174 spigot;
#X obj 220 174 spigot;
#X obj 63 349 outlet~;
#X obj 38 35 inlet;
#X obj 84 35 inlet;
#X obj 128 35 inlet;
#X obj 172 37 inlet;
#X msg 61 231 open samples/kick.wav \, 1;
#X obj 218 40 inlet;
#X obj 271 175 spigot;
#X obj 285 101 r g22;
#X obj 231 130 r g32;
#X obj 270 129 r g42;
#X obj 309 133 r g52;
#X obj 232 102 r g12;
#X connect 0 0 1 0;
#X connect 1 0 6 0;
#X connect 2 0 11 0;
#X connect 3 0 11 0;
#X connect 4 0 11 0;
#X connect 5 0 11 0;
#X connect 7 0 2 0;
#X connect 8 0 3 0;
#X connect 9 0 4 0;
#X connect 10 0 5 0;
#X connect 11 0 0 0;
#X connect 12 0 13 0;
#X connect 13 0 11 0;
#X connect 14 0 3 1;
#X connect 15 0 4 1;
#X connect 16 0 5 1;
#X connect 17 0 13 1;
#X connect 18 0 2 1;
#X restore 208 431 pd ins1;
#N canvas 845 116 965 786 ins1 0;
#X obj 63 263 readsf~;
#X obj 58 178 spigot;
#X obj 114 176 spigot;
#X obj 168 174 spigot;
#X obj 220 174 spigot;
#X obj 63 349 outlet~;
#X obj 38 35 inlet;
#X obj 84 35 inlet;
#X obj 128 35 inlet;
#X obj 172 37 inlet;
#X msg 61 231 open samples/snare.wav \, 1;
#X obj 218 38 inlet;
#X obj 273 177 spigot;
#X obj 232 102 r b12;
#X obj 272 102 r b22;
#X obj 231 130 r b32;
#X obj 270 129 r b42;
#X obj 309 129 r b52;
#X obj 63 286 *~ 0.07;
#X connect 0 0 18 0;
#X connect 1 0 10 0;
#X connect 2 0 10 0;
#X connect 3 0 10 0;
#X connect 4 0 10 0;
#X connect 6 0 1 0;
#X connect 7 0 2 0;
#X connect 8 0 3 0;
#X connect 9 0 4 0;
#X connect 10 0 0 0;
#X connect 11 0 12 0;
#X connect 12 0 10 0;
#X connect 13 0 1 1;
#X connect 14 0 2 1;
#X connect 15 0 3 1;
#X connect 16 0 4 1;
#X connect 17 0 12 1;
#X connect 18 0 5 0;
#X restore 271 430 pd ins1;
#N canvas 149 177 965 786 ins1 0;
#X obj 63 263 readsf~;
#X obj 63 286 *~ 0.1;
#X obj 58 178 spigot;
#X obj 114 176 spigot;
#X obj 168 174 spigot;
#X obj 220 174 spigot;
#X obj 63 349 outlet~;
#X obj 38 35 inlet;
#X obj 84 35 inlet;
#X obj 128 35 inlet;
#X obj 172 37 inlet;
#X msg 61 231 open samples/hihat.wav \, 1;
#X obj 223 37 inlet;
#X obj 279 174 spigot;
#X obj 232 102 r c12;
#X obj 272 102 r c22;
#X obj 231 130 r c32;
#X obj 271 129 r c42;
#X obj 314 129 r c52;
#X connect 0 0 1 0;
#X connect 1 0 6 0;
#X connect 2 0 11 0;
#X connect 3 0 11 0;
#X connect 4 0 11 0;
#X connect 5 0 11 0;
#X connect 7 0 2 0;
#X connect 8 0 3 0;
#X connect 9 0 4 0;
#X connect 10 0 5 0;
#X connect 11 0 0 0;
#X connect 12 0 13 0;
#X connect 13 0 11 0;
#X connect 14 0 2 1;
#X connect 15 0 3 1;
#X connect 16 0 4 1;
#X connect 17 0 5 1;
#X connect 18 0 13 1;
#X restore 329 429 pd ins1;
#X obj 134 253 mod 5;
#X obj 134 280 sel 0 1 2 3 4;
#N canvas 149 177 965 786 ins1 0;
#X obj 63 263 readsf~;
#X obj 63 286 *~ 0.1;
#X obj 58 178 spigot;
#X obj 114 176 spigot;
#X obj 168 174 spigot;
#X obj 220 174 spigot;
#X obj 63 349 outlet~;
#X obj 38 35 inlet;
#X obj 84 35 inlet;
#X obj 128 35 inlet;
#X obj 172 37 inlet;
#X obj 223 37 inlet;
#X obj 279 174 spigot;
#X msg 61 231 open samples/gtr-57.wav \, 1;
#X obj 232 102 r d12;
#X obj 272 103 r d22;
#X obj 231 130 r d32;
#X obj 270 129 r d42;
#X obj 314 128 r d52;
#X connect 0 0 1 0;
#X connect 1 0 6 0;
#X connect 2 0 13 0;
#X connect 3 0 13 0;
#X connect 4 0 13 0;
#X connect 5 0 13 0;
#X connect 7 0 2 0;
#X connect 8 0 3 0;
#X connect 9 0 4 0;
#X connect 10 0 5 0;
#X connect 11 0 12 0;
#X connect 12 0 13 0;
#X connect 13 0 0 0;
#X connect 14 0 2 1;
#X connect 15 0 3 1;
#X connect 16 0 4 1;
#X connect 17 0 5 1;
#X connect 18 0 12 1;
#X restore 386 430 pd ins1;
#N canvas 149 177 965 786 ins1 0;
#X obj 63 263 readsf~;
#X obj 63 286 *~ 0.1;
#X obj 58 178 spigot;
#X obj 114 176 spigot;
#X obj 168 174 spigot;
#X obj 220 174 spigot;
#X obj 63 349 outlet~;
#X obj 38 35 inlet;
#X obj 84 35 inlet;
#X obj 128 35 inlet;
#X obj 172 37 inlet;
#X obj 223 37 inlet;
#X obj 279 174 spigot;
#X msg 61 231 open samples/harp-A69.wav \, 1;
#X obj 232 102 r e12;
#X obj 272 103 r e22;
#X obj 231 130 r e32;
#X obj 270 129 r e42;
#X obj 314 129 r e52;
#X connect 0 0 1 0;
#X connect 1 0 6 0;
#X connect 2 0 13 0;
#X connect 3 0 13 0;
#X connect 4 0 13 0;
#X connect 5 0 13 0;
#X connect 7 0 2 0;
#X connect 8 0 3 0;
#X connect 9 0 4 0;
#X connect 10 0 5 0;
#X connect 11 0 12 0;
#X connect 12 0 13 0;
#X connect 13 0 0 0;
#X connect 14 0 2 1;
#X connect 15 0 3 1;
#X connect 16 0 4 1;
#X connect 17 0 5 1;
#X connect 18 0 12 1;
#X restore 443 430 pd ins1;
#X obj 84 4 inlet;
#X msg 145 68 0;
#X obj 40 306 s i2;
#X obj 41 344 s ii2;
#X obj 42 379 s iii2;
#X obj 42 424 s iv2;
#X obj 41 460 s v2;
#X obj 205 138 r tempo;
#X obj 133 189 metro 250;
#X obj 145 42 del 1250;
#X obj 244 22 r tempo;
#X obj 244 48 * 5;
#X connect 1 0 2 0;
#X connect 1 0 6 0;
#X connect 2 0 1 1;
#X connect 3 0 0 0;
#X connect 3 0 0 1;
#X connect 4 0 0 0;
#X connect 4 0 0 1;
#X connect 5 0 0 0;
#X connect 5 0 0 1;
#X connect 6 0 7 0;
#X connect 7 0 3 0;
#X connect 7 0 4 0;
#X connect 7 0 5 0;
#X connect 7 0 8 0;
#X connect 7 0 9 0;
#X connect 7 0 12 0;
#X connect 7 1 3 1;
#X connect 7 1 4 1;
#X connect 7 1 5 1;
#X connect 7 1 8 1;
#X connect 7 1 9 1;
#X connect 7 1 13 0;
#X connect 7 2 3 2;
#X connect 7 2 4 2;
#X connect 7 2 5 2;
#X connect 7 2 8 2;
#X connect 7 2 9 2;
#X connect 7 2 14 0;
#X connect 7 3 3 3;
#X connect 7 3 4 3;
#X connect 7 3 5 3;
#X connect 7 3 9 3;
#X connect 7 3 8 3;
#X connect 7 3 15 0;
#X connect 7 4 3 4;
#X connect 7 4 5 4;
#X connect 7 4 8 4;
#X connect 7 4 9 4;
#X connect 7 4 16 0;
#X connect 7 4 4 4;
#X connect 8 0 0 0;
#X connect 8 0 0 1;
#X connect 9 0 0 0;
#X connect 9 0 0 1;
#X connect 10 0 18 0;
#X connect 10 0 19 0;
#X connect 11 0 18 0;
#X connect 17 0 18 1;
#X connect 18 0 1 0;
#X connect 19 0 11 0;
#X connect 20 0 21 0;
#X connect 21 0 19 1;
#X restore 148 261 pd 5beats;
#N canvas 529 98 1198 805 5beats 0;
#X obj 275 553 dac~;
#X obj 134 228 f;
#X obj 183 223 + 1;
#N canvas 811 50 965 786 ins1 0;
#X obj 63 263 readsf~;
#X obj 63 286 *~ 0.1;
#X obj 58 178 spigot;
#X obj 114 176 spigot;
#X obj 168 174 spigot;
#X obj 220 174 spigot;
#X obj 63 349 outlet~;
#X obj 38 35 inlet;
#X obj 84 35 inlet;
#X obj 128 35 inlet;
#X obj 172 37 inlet;
#X msg 61 231 open samples/kick.wav \, 1;
#X obj 218 40 inlet;
#X obj 271 175 spigot;
#X obj 232 102 r g13;
#X obj 272 103 r g23;
#X obj 231 130 r g33;
#X obj 270 129 r g43;
#X obj 309 133 r g53;
#X connect 0 0 1 0;
#X connect 1 0 6 0;
#X connect 2 0 11 0;
#X connect 3 0 11 0;
#X connect 4 0 11 0;
#X connect 5 0 11 0;
#X connect 7 0 2 0;
#X connect 8 0 3 0;
#X connect 9 0 4 0;
#X connect 10 0 5 0;
#X connect 11 0 0 0;
#X connect 12 0 13 0;
#X connect 13 0 11 0;
#X connect 14 0 2 1;
#X connect 15 0 3 1;
#X connect 16 0 4 1;
#X connect 17 0 5 1;
#X connect 18 0 13 1;
#X restore 208 431 pd ins1;
#N canvas 934 95 965 786 ins1 0;
#X obj 63 263 readsf~;
#X obj 58 178 spigot;
#X obj 114 176 spigot;
#X obj 168 174 spigot;
#X obj 220 174 spigot;
#X obj 63 349 outlet~;
#X obj 38 35 inlet;
#X obj 84 35 inlet;
#X obj 128 35 inlet;
#X obj 172 37 inlet;
#X msg 61 231 open samples/snare.wav \, 1;
#X obj 218 38 inlet;
#X obj 273 177 spigot;
#X obj 232 102 r b13;
#X obj 272 103 r b23;
#X obj 231 130 r b33;
#X obj 270 129 r b43;
#X obj 309 129 r b53;
#X obj 63 286 *~ 0.07;
#X connect 0 0 18 0;
#X connect 1 0 10 0;
#X connect 2 0 10 0;
#X connect 3 0 10 0;
#X connect 4 0 10 0;
#X connect 6 0 1 0;
#X connect 7 0 2 0;
#X connect 8 0 3 0;
#X connect 9 0 4 0;
#X connect 10 0 0 0;
#X connect 11 0 12 0;
#X connect 12 0 10 0;
#X connect 13 0 1 1;
#X connect 14 0 2 1;
#X connect 15 0 3 1;
#X connect 16 0 4 1;
#X connect 17 0 12 1;
#X connect 18 0 5 0;
#X restore 271 430 pd ins1;
#N canvas 149 177 965 786 ins1 0;
#X obj 63 263 readsf~;
#X obj 63 286 *~ 0.1;
#X obj 58 178 spigot;
#X obj 114 176 spigot;
#X obj 168 174 spigot;
#X obj 220 174 spigot;
#X obj 63 349 outlet~;
#X obj 38 35 inlet;
#X obj 84 35 inlet;
#X obj 128 35 inlet;
#X obj 172 37 inlet;
#X msg 61 231 open samples/hihat.wav \, 1;
#X obj 223 37 inlet;
#X obj 279 174 spigot;
#X obj 232 102 r c13;
#X obj 272 103 r c23;
#X obj 231 130 r c33;
#X obj 270 129 r c43;
#X obj 314 129 r c53;
#X connect 0 0 1 0;
#X connect 1 0 6 0;
#X connect 2 0 11 0;
#X connect 3 0 11 0;
#X connect 4 0 11 0;
#X connect 5 0 11 0;
#X connect 7 0 2 0;
#X connect 8 0 3 0;
#X connect 9 0 4 0;
#X connect 10 0 5 0;
#X connect 11 0 0 0;
#X connect 12 0 13 0;
#X connect 13 0 11 0;
#X connect 14 0 2 1;
#X connect 15 0 3 1;
#X connect 16 0 4 1;
#X connect 17 0 5 1;
#X connect 18 0 13 1;
#X restore 329 429 pd ins1;
#X obj 134 253 mod 5;
#X obj 134 280 sel 0 1 2 3 4;
#N canvas 149 177 965 786 ins1 0;
#X obj 63 263 readsf~;
#X obj 63 286 *~ 0.1;
#X obj 58 178 spigot;
#X obj 114 176 spigot;
#X obj 168 174 spigot;
#X obj 220 174 spigot;
#X obj 63 349 outlet~;
#X obj 38 35 inlet;
#X obj 84 35 inlet;
#X obj 128 35 inlet;
#X obj 172 37 inlet;
#X obj 223 37 inlet;
#X obj 279 174 spigot;
#X msg 61 231 open samples/gtr-57.wav \, 1;
#X obj 232 102 r d13;
#X obj 272 103 r d23;
#X obj 231 130 r d33;
#X obj 270 129 r d43;
#X obj 314 127 r d53;
#X connect 0 0 1 0;
#X connect 1 0 6 0;
#X connect 2 0 13 0;
#X connect 3 0 13 0;
#X connect 4 0 13 0;
#X connect 5 0 13 0;
#X connect 7 0 2 0;
#X connect 8 0 3 0;
#X connect 9 0 4 0;
#X connect 10 0 5 0;
#X connect 11 0 12 0;
#X connect 12 0 13 0;
#X connect 13 0 0 0;
#X connect 14 0 2 1;
#X connect 15 0 3 1;
#X connect 16 0 4 1;
#X connect 17 0 5 1;
#X connect 18 0 12 1;
#X restore 386 430 pd ins1;
#N canvas 149 177 965 786 ins1 0;
#X obj 63 263 readsf~;
#X obj 63 286 *~ 0.1;
#X obj 58 178 spigot;
#X obj 114 176 spigot;
#X obj 168 174 spigot;
#X obj 220 174 spigot;
#X obj 63 349 outlet~;
#X obj 38 35 inlet;
#X obj 84 35 inlet;
#X obj 128 35 inlet;
#X obj 172 37 inlet;
#X obj 223 37 inlet;
#X obj 279 174 spigot;
#X msg 61 231 open samples/harp-A69.wav \, 1;
#X obj 232 102 r e13;
#X obj 272 103 r e23;
#X obj 231 130 r e33;
#X obj 270 129 r e43;
#X obj 314 129 r e53;
#X connect 0 0 1 0;
#X connect 1 0 6 0;
#X connect 2 0 13 0;
#X connect 3 0 13 0;
#X connect 4 0 13 0;
#X connect 5 0 13 0;
#X connect 7 0 2 0;
#X connect 8 0 3 0;
#X connect 9 0 4 0;
#X connect 10 0 5 0;
#X connect 11 0 12 0;
#X connect 12 0 13 0;
#X connect 13 0 0 0;
#X connect 14 0 2 1;
#X connect 15 0 3 1;
#X connect 16 0 4 1;
#X connect 17 0 5 1;
#X connect 18 0 12 1;
#X restore 443 430 pd ins1;
#X obj 84 4 inlet;
#X msg 145 68 0;
#X obj 40 306 s i3;
#X obj 41 344 s ii3;
#X obj 42 379 s iii3;
#X obj 42 424 s iv3;
#X obj 41 460 s v3;
#X obj 205 138 r tempo;
#X obj 133 189 metro 250;
#X obj 145 42 del 1250;
#X obj 244 22 r tempo;
#X obj 244 48 * 5;
#X connect 1 0 2 0;
#X connect 1 0 6 0;
#X connect 2 0 1 1;
#X connect 3 0 0 0;
#X connect 3 0 0 1;
#X connect 4 0 0 0;
#X connect 4 0 0 1;
#X connect 5 0 0 0;
#X connect 5 0 0 1;
#X connect 6 0 7 0;
#X connect 7 0 3 0;
#X connect 7 0 4 0;
#X connect 7 0 5 0;
#X connect 7 0 8 0;
#X connect 7 0 9 0;
#X connect 7 0 12 0;
#X connect 7 1 3 1;
#X connect 7 1 4 1;
#X connect 7 1 5 1;
#X connect 7 1 8 1;
#X connect 7 1 9 1;
#X connect 7 1 13 0;
#X connect 7 2 3 2;
#X connect 7 2 4 2;
#X connect 7 2 5 2;
#X connect 7 2 8 2;
#X connect 7 2 9 2;
#X connect 7 2 14 0;
#X connect 7 3 3 3;
#X connect 7 3 4 3;
#X connect 7 3 5 3;
#X connect 7 3 9 3;
#X connect 7 3 8 3;
#X connect 7 3 15 0;
#X connect 7 4 3 4;
#X connect 7 4 5 4;
#X connect 7 4 8 4;
#X connect 7 4 9 4;
#X connect 7 4 16 0;
#X connect 7 4 4 4;
#X connect 8 0 0 0;
#X connect 8 0 0 1;
#X connect 9 0 0 0;
#X connect 9 0 0 1;
#X connect 10 0 18 0;
#X connect 10 0 19 0;
#X connect 11 0 18 0;
#X connect 17 0 18 1;
#X connect 18 0 1 0;
#X connect 19 0 11 0;
#X connect 20 0 21 0;
#X connect 21 0 19 1;
#X restore 225 260 pd 5beats;
#N canvas 529 98 1198 805 5beats 1;
#X obj 275 553 dac~;
#X obj 134 228 f;
#X obj 183 223 + 1;
#N canvas 811 50 965 786 ins1 0;
#X obj 63 263 readsf~;
#X obj 63 286 *~ 0.1;
#X obj 58 178 spigot;
#X obj 114 176 spigot;
#X obj 168 174 spigot;
#X obj 220 174 spigot;
#X obj 63 349 outlet~;
#X obj 38 35 inlet;
#X obj 84 35 inlet;
#X obj 128 35 inlet;
#X obj 172 37 inlet;
#X msg 61 231 open samples/kick.wav \, 1;
#X obj 218 40 inlet;
#X obj 271 175 spigot;
#X obj 232 102 r g14;
#X obj 272 102 r g24;
#X obj 231 130 r g34;
#X obj 270 129 r g44;
#X obj 309 133 r g54;
#X connect 0 0 1 0;
#X connect 1 0 6 0;
#X connect 2 0 11 0;
#X connect 3 0 11 0;
#X connect 4 0 11 0;
#X connect 5 0 11 0;
#X connect 7 0 2 0;
#X connect 8 0 3 0;
#X connect 9 0 4 0;
#X connect 10 0 5 0;
#X connect 11 0 0 0;
#X connect 12 0 13 0;
#X connect 13 0 11 0;
#X connect 14 0 2 1;
#X connect 15 0 3 1;
#X connect 16 0 4 1;
#X connect 17 0 5 1;
#X connect 18 0 13 1;
#X restore 208 431 pd ins1;
#N canvas 934 95 965 786 ins1 1;
#X obj 63 263 readsf~;
#X obj 58 178 spigot;
#X obj 114 176 spigot;
#X obj 168 174 spigot;
#X obj 220 174 spigot;
#X obj 63 349 outlet~;
#X obj 38 35 inlet;
#X obj 84 35 inlet;
#X obj 128 35 inlet;
#X obj 172 37 inlet;
#X msg 61 231 open samples/snare.wav \, 1;
#X obj 218 38 inlet;
#X obj 273 177 spigot;
#X obj 232 102 r b14;
#X obj 272 103 r b24;
#X obj 231 130 r b34;
#X obj 270 129 r b44;
#X obj 309 130 r b54;
#X obj 63 286 *~ 0.07;
#X connect 0 0 18 0;
#X connect 1 0 10 0;
#X connect 2 0 10 0;
#X connect 3 0 10 0;
#X connect 4 0 10 0;
#X connect 6 0 1 0;
#X connect 7 0 2 0;
#X connect 8 0 3 0;
#X connect 9 0 4 0;
#X connect 10 0 0 0;
#X connect 11 0 12 0;
#X connect 12 0 10 0;
#X connect 13 0 1 1;
#X connect 14 0 2 1;
#X connect 15 0 3 1;
#X connect 16 0 4 1;
#X connect 17 0 12 1;
#X connect 18 0 5 0;
#X restore 271 430 pd ins1;
#N canvas 149 177 965 786 ins1 0;
#X obj 63 263 readsf~;
#X obj 63 286 *~ 0.1;
#X obj 58 178 spigot;
#X obj 114 176 spigot;
#X obj 168 174 spigot;
#X obj 220 174 spigot;
#X obj 63 349 outlet~;
#X obj 38 35 inlet;
#X obj 84 35 inlet;
#X obj 128 35 inlet;
#X obj 172 37 inlet;
#X msg 61 231 open samples/hihat.wav \, 1;
#X obj 223 37 inlet;
#X obj 279 174 spigot;
#X obj 232 102 r c14;
#X obj 272 103 r c24;
#X obj 231 130 r c34;
#X obj 270 129 r c44;
#X obj 314 129 r c54;
#X connect 0 0 1 0;
#X connect 1 0 6 0;
#X connect 2 0 11 0;
#X connect 3 0 11 0;
#X connect 4 0 11 0;
#X connect 5 0 11 0;
#X connect 7 0 2 0;
#X connect 8 0 3 0;
#X connect 9 0 4 0;
#X connect 10 0 5 0;
#X connect 11 0 0 0;
#X connect 12 0 13 0;
#X connect 13 0 11 0;
#X connect 14 0 2 1;
#X connect 15 0 3 1;
#X connect 16 0 4 1;
#X connect 17 0 5 1;
#X connect 18 0 13 1;
#X restore 329 429 pd ins1;
#X obj 134 253 mod 5;
#X obj 134 280 sel 0 1 2 3 4;
#N canvas 149 177 965 786 ins1 0;
#X obj 63 263 readsf~;
#X obj 63 286 *~ 0.1;
#X obj 58 178 spigot;
#X obj 114 176 spigot;
#X obj 168 174 spigot;
#X obj 220 174 spigot;
#X obj 63 349 outlet~;
#X obj 38 35 inlet;
#X obj 84 35 inlet;
#X obj 128 35 inlet;
#X obj 172 37 inlet;
#X obj 223 37 inlet;
#X obj 279 174 spigot;
#X msg 61 231 open samples/gtr-57.wav \, 1;
#X obj 232 102 r d14;
#X obj 272 103 r d24;
#X obj 231 130 r d34;
#X obj 270 129 r d44;
#X obj 314 128 r d54;
#X connect 0 0 1 0;
#X connect 1 0 6 0;
#X connect 2 0 13 0;
#X connect 3 0 13 0;
#X connect 4 0 13 0;
#X connect 5 0 13 0;
#X connect 7 0 2 0;
#X connect 8 0 3 0;
#X connect 9 0 4 0;
#X connect 10 0 5 0;
#X connect 11 0 12 0;
#X connect 12 0 13 0;
#X connect 13 0 0 0;
#X connect 14 0 2 1;
#X connect 15 0 3 1;
#X connect 16 0 4 1;
#X connect 17 0 5 1;
#X connect 18 0 12 1;
#X restore 386 430 pd ins1;
#N canvas 149 177 965 786 ins1 0;
#X obj 63 263 readsf~;
#X obj 63 286 *~ 0.1;
#X obj 58 178 spigot;
#X obj 114 176 spigot;
#X obj 168 174 spigot;
#X obj 220 174 spigot;
#X obj 63 349 outlet~;
#X obj 38 35 inlet;
#X obj 84 35 inlet;
#X obj 128 35 inlet;
#X obj 172 37 inlet;
#X obj 223 37 inlet;
#X obj 279 174 spigot;
#X msg 61 231 open samples/harp-A69.wav \, 1;
#X obj 232 102 r e14;
#X obj 272 103 r e24;
#X obj 231 130 r e34;
#X obj 270 129 r e44;
#X obj 314 129 r e54;
#X connect 0 0 1 0;
#X connect 1 0 6 0;
#X connect 2 0 13 0;
#X connect 3 0 13 0;
#X connect 4 0 13 0;
#X connect 5 0 13 0;
#X connect 7 0 2 0;
#X connect 8 0 3 0;
#X connect 9 0 4 0;
#X connect 10 0 5 0;
#X connect 11 0 12 0;
#X connect 12 0 13 0;
#X connect 13 0 0 0;
#X connect 14 0 2 1;
#X connect 15 0 3 1;
#X connect 16 0 4 1;
#X connect 17 0 5 1;
#X connect 18 0 12 1;
#X restore 443 430 pd ins1;
#X obj 84 4 inlet;
#X msg 145 68 0;
#X obj 40 306 s i4;
#X obj 41 344 s ii4;
#X obj 43 379 s iii4;
#X obj 42 424 s iv4;
#X obj 41 460 s v4;
#X obj 205 138 r tempo;
#X obj 133 189 metro 250;
#X obj 145 42 del 1250;
#X obj 244 22 r tempo;
#X obj 244 48 * 5;
#X connect 1 0 2 0;
#X connect 1 0 6 0;
#X connect 2 0 1 1;
#X connect 3 0 0 0;
#X connect 3 0 0 1;
#X connect 4 0 0 0;
#X connect 4 0 0 1;
#X connect 5 0 0 0;
#X connect 5 0 0 1;
#X connect 6 0 7 0;
#X connect 7 0 3 0;
#X connect 7 0 4 0;
#X connect 7 0 5 0;
#X connect 7 0 8 0;
#X connect 7 0 9 0;
#X connect 7 0 12 0;
#X connect 7 1 3 1;
#X connect 7 1 4 1;
#X connect 7 1 5 1;
#X connect 7 1 8 1;
#X connect 7 1 9 1;
#X connect 7 1 13 0;
#X connect 7 2 3 2;
#X connect 7 2 4 2;
#X connect 7 2 5 2;
#X connect 7 2 8 2;
#X connect 7 2 9 2;
#X connect 7 2 14 0;
#X connect 7 3 3 3;
#X connect 7 3 4 3;
#X connect 7 3 5 3;
#X connect 7 3 9 3;
#X connect 7 3 8 3;
#X connect 7 3 15 0;
#X connect 7 4 3 4;
#X connect 7 4 5 4;
#X connect 7 4 8 4;
#X connect 7 4 9 4;
#X connect 7 4 16 0;
#X connect 7 4 4 4;
#X connect 8 0 0 0;
#X connect 8 0 0 1;
#X connect 9 0 0 0;
#X connect 9 0 0 1;
#X connect 10 0 18 0;
#X connect 10 0 19 0;
#X connect 11 0 18 0;
#X connect 17 0 18 1;
#X connect 18 0 1 0;
#X connect 19 0 11 0;
#X connect 20 0 21 0;
#X connect 21 0 19 1;
#X restore 303 259 pd 5beats;
#X obj 148 62 metro 1250;
#X msg 43 110 0;
#X obj 23 65 r st;
#X obj 251 38 r tempo;
#X obj 251 64 * 5;
#X connect 1 0 2 0;
#X connect 1 0 3 0;
#X connect 2 0 1 1;
#X connect 3 0 4 0;
#X connect 4 0 0 0;
#X connect 4 1 6 0;
#X connect 4 2 7 0;
#X connect 4 3 8 0;
#X connect 5 0 9 0;
#X connect 5 0 10 0;
#X connect 9 0 1 0;
#X connect 10 0 1 1;
#X connect 11 0 5 0;
#X connect 12 0 13 0;
#X connect 13 0 9 1;
#X restore 728 64 pd main;
#X obj 756 127 tgl 15 0 st empty empty 17 7 0 10 -262144 -1 -1 1 1
;
#X text 740 103 start/stop;
#X floatatom 759 201 5 0 0 0 - - -;
#X text 746 160 enter tempo (curr 250);
#X obj 759 226 s tempo;
#X obj 795 77 loadbang;
#X connect 129 0 131 0;
#X connect 132 0 127 0;
#X coords 0 -1 1 1 850 300 1 10 10;
#X restore 29 44 pd presentation;
#X text 722 214 enter tempo curr = 250;
#X text 242 294 you need to stop the sequencer before changing tempo
- press start after it is changed;
