#N canvas -9 -9 1920 976 12;
#X obj 1156 121 list split 3;
#X obj 1144 150 list split 2;
#X obj 1143 185 list split 1;
#X text 1238 214 1 2;
#X floatatom 1143 216 5 0 0 0 - - -;
#X floatatom 1185 218 5 0 0 0 - - -;
#X floatatom 1246 186 5 0 0 0 - - -;
#X text 1289 186 3;
#X obj 1130 269 *;
#X obj 1187 271 *;
#X obj 1241 274 *;
#X floatatom 1375 195 5 0 0 0 - - -;
#X obj 1109 460 expr $f1 * $f2 * $f3 * (1 - $f3);
#X obj 1159 495 expr $f1 * $f2 * $f3 * (1 - $f3);
#X obj 1204 526 expr $f1 * $f2 * $f3 * (1 - $f3);
#X floatatom 1487 387 5 0 0 0 - - -;
#X obj 1059 498 +;
#X obj 1122 539 +;
#X obj 1206 558 +;
#X floatatom 1054 622 5 0 0 0 - - -;
#X floatatom 1186 638 5 0 0 0 - - -;
#X floatatom 1313 624 5 0 0 0 - - -;
#X obj 936 405 expr $f2 - $f1;
#X obj 40 19 inlet;
#X text 1421 201 4;
#X floatatom 81 91 5 0 0 0 - - -;
#X text 85 114 final;
#X obj 1359 278 *;
#X obj 1457 466 expr $f1 * $f2 * $f3 * (1 - $f3);
#X obj 1458 500 +;
#X floatatom 1514 504 5 0 0 0 - - -;
#X floatatom 690 490 5 0 0 0 - - -;
#X obj 650 571 *;
#X obj 622 618 expr $f1 * $f2 * $f3 * (1 - $f3);
#X obj 623 652 +;
#X floatatom 679 656 5 0 0 0 - - -;
#X obj 637 448 list split 4;
#X text 1013 384 fin;
#X obj 995 325 expr pow(pow(2.718282 \, (($f1 + $f2 + $f3 + $f4 + $f5
+ $f6 + $f7 + $f8) * -1)) + 1 \, -1);
#X msg 101 20 0 0 1 0 0 0 0 0 1;
#X floatatom 407 488 5 0 0 0 - - -;
#X obj 367 569 *;
#X obj 339 616 expr $f1 * $f2 * $f3 * (1 - $f3);
#X obj 340 650 +;
#X floatatom 396 654 5 0 0 0 - - -;
#X obj 354 446 list split 5;
#X obj 52 53 list split 6;
#X obj 341 672 s w063;
#X obj 626 674 s w053;
#X obj 383 533 r w63;
#X obj 666 535 r w53;
#X obj 1148 240 r w13;
#X obj 1205 242 r w23;
#X obj 1279 248 r w33;
#X obj 1374 242 r w43;
#X obj 1056 524 s w013;
#X obj 1122 575 s w023;
#X obj 1205 585 s w033;
#X obj 1458 523 s w043;
#X connect 0 0 1 0;
#X connect 0 1 11 0;
#X connect 1 0 2 0;
#X connect 1 1 6 0;
#X connect 2 0 4 0;
#X connect 2 1 5 0;
#X connect 4 0 8 0;
#X connect 4 0 12 1;
#X connect 5 0 9 0;
#X connect 5 0 13 1;
#X connect 6 0 10 0;
#X connect 6 0 14 1;
#X connect 8 0 38 0;
#X connect 9 0 38 1;
#X connect 10 0 38 2;
#X connect 11 0 27 0;
#X connect 11 0 28 1;
#X connect 12 0 16 0;
#X connect 12 0 19 0;
#X connect 13 0 17 0;
#X connect 13 0 20 0;
#X connect 14 0 18 0;
#X connect 14 0 21 0;
#X connect 16 0 55 0;
#X connect 17 0 56 0;
#X connect 18 0 57 0;
#X connect 22 0 12 0;
#X connect 22 0 13 0;
#X connect 22 0 14 0;
#X connect 22 0 28 0;
#X connect 22 0 33 0;
#X connect 22 0 42 0;
#X connect 23 0 46 0;
#X connect 25 0 22 1;
#X connect 27 0 38 3;
#X connect 28 0 29 0;
#X connect 28 0 30 0;
#X connect 29 0 58 0;
#X connect 31 0 32 0;
#X connect 31 0 33 1;
#X connect 32 0 38 4;
#X connect 33 0 34 0;
#X connect 33 0 35 0;
#X connect 34 0 48 0;
#X connect 36 0 0 0;
#X connect 36 1 31 0;
#X connect 38 0 12 2;
#X connect 38 0 13 2;
#X connect 38 0 14 2;
#X connect 38 0 15 0;
#X connect 38 0 22 0;
#X connect 38 0 28 2;
#X connect 38 0 33 2;
#X connect 38 0 42 2;
#X connect 40 0 41 0;
#X connect 40 0 42 1;
#X connect 41 0 38 5;
#X connect 42 0 43 0;
#X connect 42 0 44 0;
#X connect 43 0 47 0;
#X connect 45 0 36 0;
#X connect 45 1 40 0;
#X connect 46 0 45 0;
#X connect 46 1 25 0;
#X connect 49 0 41 1;
#X connect 49 0 43 1;
#X connect 50 0 32 1;
#X connect 50 0 34 1;
#X connect 51 0 8 1;
#X connect 51 0 16 1;
#X connect 52 0 9 1;
#X connect 52 0 17 1;
#X connect 53 0 10 1;
#X connect 53 0 18 1;
#X connect 54 0 27 1;
#X connect 54 0 29 1;
