#N canvas -9 -9 1920 976 12;
#X obj 1156 121 list split 3;
#X obj 1144 150 list split 2;
#X obj 1143 185 list split 1;
#X text 1238 214 1 2;
#X floatatom 1143 216 5 0 0 0 - - -;
#X floatatom 1185 218 5 0 0 0 - - -;
#X floatatom 1246 186 5 0 0 0 - - -;
#X text 1289 186 3;
#X obj 1130 269 *;
#X obj 1148 240 r w1;
#X obj 1187 271 *;
#X obj 1241 274 *;
#X obj 1205 242 r w2;
#X obj 1279 248 r w3;
#X floatatom 1375 195 5 0 0 0 - - -;
#X obj 1109 460 expr $f1 * $f2 * $f3 * (1 - $f3);
#X obj 1159 495 expr $f1 * $f2 * $f3 * (1 - $f3);
#X obj 1204 526 expr $f1 * $f2 * $f3 * (1 - $f3);
#X obj 1056 523 s w01;
#X floatatom 1487 387 5 0 0 0 - - -;
#X obj 1059 498 +;
#X obj 1122 539 +;
#X obj 1122 575 s w02;
#X obj 1206 558 +;
#X obj 1204 585 s w03;
#X floatatom 1054 622 5 0 0 0 - - -;
#X floatatom 1186 638 5 0 0 0 - - -;
#X floatatom 1313 624 5 0 0 0 - - -;
#X obj 936 405 expr $f2 - $f1;
#X obj 40 19 inlet;
#X text 1421 201 4;
#X floatatom 81 91 5 0 0 0 - - -;
#X text 85 114 final;
#X obj 1374 242 r w4;
#X obj 1359 278 *;
#X obj 1457 466 expr $f1 * $f2 * $f3 * (1 - $f3);
#X obj 1458 500 +;
#X floatatom 1514 504 5 0 0 0 - - -;
#X obj 1458 523 s w04;
#X floatatom 690 490 5 0 0 0 - - -;
#X obj 650 571 *;
#X obj 622 618 expr $f1 * $f2 * $f3 * (1 - $f3);
#X obj 623 652 +;
#X floatatom 679 656 5 0 0 0 - - -;
#X obj 637 448 list split 4;
#X text 1013 384 fin;
#X obj 665 535 r w5;
#X obj 624 674 s w05;
#X obj 995 325 expr pow(pow(2.718282 \, (($f1 + $f2 + $f3 + $f4 + $f5
+ $f6 + $f7 + $f8) * -1)) + 1 \, -1);
#X msg 101 20 0 0 1 0 0 0 0 0 1;
#X floatatom 407 488 5 0 0 0 - - -;
#X obj 367 569 *;
#X obj 339 616 expr $f1 * $f2 * $f3 * (1 - $f3);
#X obj 340 650 +;
#X floatatom 396 654 5 0 0 0 - - -;
#X obj 354 446 list split 5;
#X obj 382 533 r w6;
#X obj 341 672 s w06;
#X obj 52 53 list split 6;
#X connect 0 0 1 0;
#X connect 0 1 14 0;
#X connect 1 0 2 0;
#X connect 1 1 6 0;
#X connect 2 0 4 0;
#X connect 2 1 5 0;
#X connect 4 0 8 0;
#X connect 4 0 15 1;
#X connect 5 0 10 0;
#X connect 5 0 16 1;
#X connect 6 0 11 0;
#X connect 6 0 17 1;
#X connect 8 0 48 0;
#X connect 9 0 8 1;
#X connect 9 0 20 1;
#X connect 10 0 48 1;
#X connect 11 0 48 2;
#X connect 12 0 10 1;
#X connect 12 0 21 1;
#X connect 13 0 11 1;
#X connect 13 0 23 1;
#X connect 14 0 34 0;
#X connect 14 0 35 1;
#X connect 15 0 20 0;
#X connect 15 0 25 0;
#X connect 16 0 21 0;
#X connect 16 0 26 0;
#X connect 17 0 23 0;
#X connect 17 0 27 0;
#X connect 20 0 18 0;
#X connect 21 0 22 0;
#X connect 23 0 24 0;
#X connect 28 0 15 0;
#X connect 28 0 16 0;
#X connect 28 0 17 0;
#X connect 28 0 35 0;
#X connect 28 0 41 0;
#X connect 28 0 52 0;
#X connect 29 0 58 0;
#X connect 31 0 28 1;
#X connect 33 0 34 1;
#X connect 33 0 36 1;
#X connect 34 0 48 3;
#X connect 35 0 36 0;
#X connect 35 0 37 0;
#X connect 36 0 38 0;
#X connect 39 0 40 0;
#X connect 39 0 41 1;
#X connect 40 0 48 4;
#X connect 41 0 42 0;
#X connect 41 0 43 0;
#X connect 42 0 47 0;
#X connect 44 0 0 0;
#X connect 44 1 39 0;
#X connect 46 0 40 1;
#X connect 46 0 42 1;
#X connect 48 0 15 2;
#X connect 48 0 16 2;
#X connect 48 0 17 2;
#X connect 48 0 19 0;
#X connect 48 0 28 0;
#X connect 48 0 35 2;
#X connect 48 0 41 2;
#X connect 48 0 52 2;
#X connect 50 0 51 0;
#X connect 50 0 52 1;
#X connect 51 0 48 5;
#X connect 52 0 53 0;
#X connect 52 0 54 0;
#X connect 53 0 57 0;
#X connect 55 0 44 0;
#X connect 55 1 50 0;
#X connect 56 0 51 1;
#X connect 56 0 53 1;
#X connect 58 0 55 0;
#X connect 58 1 31 0;
