#N canvas -9 -9 1920 976 12;
#X floatatom 308 162 5 0 0 0 - - -;
#X obj 410 400 line~;
#X obj 317 216 mtof;
#X obj 275 306 osc~;
#X obj 90 236 osc~;
#X obj 239 339 +~;
#X obj 90 259 *~;
#X obj 44 235 osc~;
#X obj 44 258 *~;
#X obj 219 379 +~;
#N canvas 841 67 1036 641 num 0;
#X obj 39 359 outlet;
#X obj 275 367 outlet;
#X obj 92 360 outlet;
#X obj 332 360 outlet;
#X msg 313 222 0.6;
#X text 54 378 freq \, amp;
#X text 285 382 freq \, amp;
#X obj 233 110 sel 49 50 51;
#X obj 178 19 loadbang;
#X msg 563 206 0.6;
#X obj 628 355 outlet;
#X obj 685 348 outlet;
#X text 638 370 freq \, amp;
#X obj 235 65 r timbre;
#X msg 112 209 1;
#X msg 124 234 0.7;
#X msg 370 234 2;
#X msg 293 192 5;
#X msg 61 132 4;
#X msg 83 163 0.6;
#X msg 543 176 7;
#X msg 639 175 4;
#X msg 661 206 0.4;
#X msg 371 272 0.8;
#X msg 733 215 0.7;
#X msg 176 224 2;
#X msg 436 228 4;
#X msg 721 190 6;
#X msg 448 253 0.6;
#X msg 188 249 0.9;
#X msg 179 45 49;
#X connect 4 0 3 0;
#X connect 7 0 18 0;
#X connect 7 0 19 0;
#X connect 7 0 17 0;
#X connect 7 0 4 0;
#X connect 7 0 20 0;
#X connect 7 0 9 0;
#X connect 7 1 14 0;
#X connect 7 1 15 0;
#X connect 7 1 16 0;
#X connect 7 1 23 0;
#X connect 7 1 21 0;
#X connect 7 1 22 0;
#X connect 7 2 25 0;
#X connect 7 2 29 0;
#X connect 7 2 26 0;
#X connect 7 2 28 0;
#X connect 7 2 27 0;
#X connect 7 2 24 0;
#X connect 8 0 30 0;
#X connect 9 0 11 0;
#X connect 13 0 7 0;
#X connect 14 0 0 0;
#X connect 15 0 2 0;
#X connect 16 0 1 0;
#X connect 17 0 1 0;
#X connect 18 0 0 0;
#X connect 19 0 2 0;
#X connect 20 0 10 0;
#X connect 21 0 10 0;
#X connect 22 0 11 0;
#X connect 23 0 3 0;
#X connect 24 0 11 0;
#X connect 25 0 0 0;
#X connect 26 0 1 0;
#X connect 27 0 10 0;
#X connect 28 0 3 0;
#X connect 29 0 2 0;
#X connect 30 0 7 0;
#X restore 81 71 pd num;
#X f 14;
#X obj 33 210 *~;
#X obj 90 209 *~;
#X obj 364 483 *~;
#X obj 170 186 osc~;
#X obj 170 209 *~;
#X obj 170 159 *~;
#X obj 199 425 +~;
#X obj 341 587 dac~;
#X obj 352 94 inlet;
#X obj 465 207 del 200;
#X obj 385 542 /~;
#X obj 432 480 loadbang;
#X msg 411 345 1 30;
#X msg 485 268 0 1000;
#X msg 433 512 60;
#X connect 0 0 2 0;
#X connect 1 0 13 1;
#X connect 2 0 3 0;
#X connect 2 0 11 0;
#X connect 2 0 12 0;
#X connect 2 0 16 0;
#X connect 3 0 5 0;
#X connect 4 0 6 0;
#X connect 5 0 9 0;
#X connect 6 0 5 1;
#X connect 7 0 8 0;
#X connect 8 0 9 1;
#X connect 9 0 17 0;
#X connect 10 0 11 1;
#X connect 10 1 8 1;
#X connect 10 2 12 1;
#X connect 10 3 6 1;
#X connect 10 4 16 1;
#X connect 10 5 15 1;
#X connect 11 0 7 0;
#X connect 12 0 4 0;
#X connect 13 0 21 0;
#X connect 14 0 15 0;
#X connect 15 0 17 1;
#X connect 16 0 14 0;
#X connect 17 0 13 0;
#X connect 19 0 0 0;
#X connect 19 0 23 0;
#X connect 19 0 20 0;
#X connect 20 0 24 0;
#X connect 21 0 18 0;
#X connect 21 0 18 1;
#X connect 22 0 25 0;
#X connect 23 0 1 0;
#X connect 24 0 1 0;
#X connect 25 0 21 1;
