#N canvas -9 -9 1920 976 12;
#X floatatom 44 146 5 0 0 0 - - -;
#X floatatom 111 145 5 0 0 0 - - -;
#X floatatom 167 143 5 0 0 0 - - -;
#X floatatom 218 148 5 0 0 0 - - -;
#X floatatom 271 146 5 0 0 0 - - -;
#X text 15 173 test output;
#X obj 53 49 bng 15 250 50 0 empty empty empty 17 7 0 10 -262144 -1
-1;
#X obj 118 58 bng 15 250 50 0 empty empty empty 17 7 0 10 -262144 -1
-1;
#X text 47 6 set go test;
#X floatatom 350 148 5 0 0 0 - - -;
#X floatatom 421 148 5 0 0 0 - - -;
#X text 482 145 resultant weights 1-6;
#X floatatom 44 389 5 0 0 0 - - -;
#X floatatom 111 388 5 0 0 0 - - -;
#X floatatom 167 386 5 0 0 0 - - -;
#X floatatom 218 391 5 0 0 0 - - -;
#X floatatom 271 389 5 0 0 0 - - -;
#X text 15 416 test output;
#X obj 53 292 bng 15 250 50 0 empty empty empty 17 7 0 10 -262144 -1
-1;
#X obj 114 289 bng 15 250 50 0 empty empty empty 17 7 0 10 -262144
-1 -1;
#X text 47 249 set go test;
#X floatatom 350 391 5 0 0 0 - - -;
#X floatatom 421 391 5 0 0 0 - - -;
#X text 479 389 resultant weights 1-6;
#X floatatom 43 638 5 0 0 0 - - -;
#X floatatom 110 637 5 0 0 0 - - -;
#X floatatom 166 635 5 0 0 0 - - -;
#X floatatom 217 640 5 0 0 0 - - -;
#X floatatom 270 638 5 0 0 0 - - -;
#X text 14 665 test output;
#X obj 52 541 bng 15 250 50 0 empty empty empty 17 7 0 10 -262144 -1
-1;
#X obj 113 538 bng 15 250 50 0 empty empty empty 17 7 0 10 -262144
-1 -1;
#X text 46 498 set go test;
#X floatatom 349 640 5 0 0 0 - - -;
#X floatatom 420 640 5 0 0 0 - - -;
#X text 473 641 resultant weights 1-6;
#X text 683 109 sound;
#X text 679 334 density;
#X text 624 584 rhythm;
#X obj 86 95 soundNeuron, f 66;
#X obj 86 338 densityNeuron, f 66;
#X obj 85 587 rhythmNeuron, f 66;
#N canvas -9 -9 1920 976 soundbox 0;
#X text 16 22 3 inputs \, each direct r \, h \, and m;
#X obj 63 76 hsl 128 15 0 1 0 0 empty sound sound -2 -8 0 15 -257985
-1 -1 0 1;
#X floatatom 61 120 5 0 3 2 - - -;
#X obj 673 74 hsl 128 15 0 1 0 0 empty density density -2 -8 0 15 -258113
-1 -1 0 1;
#X obj 1393 77 hsl 128 15 0 1 0 0 empty special special -2 -8 0 15
-4160 -1 -1 0 1;
#X obj 971 220 soundbox;
#X msg 1351 289 1 0 0 0 0 1 0 0 0 0 1 0 0 0 0 1 0 0 0 0;
#X obj 1353 389 array set maindrum;
#X obj 213 184 array define maindrum 20;
#X obj 175 175 bng 15 250 50 0 empty empty empty 17 7 0 10 -262144
-1 -1;
#X msg 1369 320 1 0 0 1 0 1 0 0 1 0 1 0 0 1 0 1 0 0 1 0;
#X msg 1391 349 1 0 0 0 1 0 0 0 1 0 0 0 1 0 0 0 1 0 0 0;
#X obj 213 220 array define drum2 20;
#X obj 214 260 array define drum3 20;
#X obj 600 345 array set drum2;
#X msg 621 309 0 1 0 1 0 0 1 0 1 0 0 1 0 1 0 0 1 0 1 0;
#X obj 599 440 array set drum3;
#X msg 625 407 1 0 1 0 1 1 0 1 0 1 1 0 1 0 1 1 0 1 0 1;
#X obj 28 152 moses 0.33;
#X obj 7 485 bng 15 250 50 0 empty empty empty 17 7 0 10 -262144 -1
-1;
#X obj 75 186 moses 0.66;
#X obj 86 476 bng 15 250 50 0 empty empty empty 17 7 0 10 -262144 -1
-1;
#X obj 137 470 bng 15 250 50 0 empty empty empty 17 7 0 10 -262144
-1 -1;
#X floatatom 685 118 5 0 3 2 - - -;
#X obj 653 156 moses 0.33;
#X obj 653 211 bng 15 250 50 0 empty empty empty 17 7 0 10 -262144
-1 -1;
#X obj 700 190 moses 0.66;
#X obj 701 227 bng 15 250 50 0 empty empty empty 17 7 0 10 -262144
-1 -1;
#X obj 773 224 bng 15 250 50 0 empty empty empty 17 7 0 10 -262144
-1 -1;
#X floatatom 1399 117 5 0 3 2 - - -;
#X obj 1371 152 moses 0.33;
#X obj 1207 299 bng 15 250 50 0 empty empty empty 17 7 0 10 -262144
-1 -1;
#X obj 1418 186 moses 0.66;
#X obj 1255 315 bng 15 250 50 0 empty empty empty 17 7 0 10 -262144
-1 -1;
#X obj 1293 315 bng 15 250 50 0 empty empty empty 17 7 0 10 -262144
-1 -1;
#N canvas -9 -9 1920 976 rhythm 0;
#X obj 79 106 inlet;
#X obj 476 249 array get maindrum;
#X msg 540 216 1;
#X floatatom 473 213 5 0 0 0 - - -;
#X obj 464 25 tgl 15 0 empty empty empty 17 7 0 10 -262144 -1 -1 0
1;
#X obj 490 106 f;
#X msg 433 106 0;
#X obj 531 105 + 1;
#X floatatom 490 145 5 0 0 0 - - -;
#X obj 490 172 moses 20;
#X floatatom 475 293 5 0 0 0 - - -;
#X obj 408 341 route 0 1 2 3 4 5 6 7 8 9 10 11 12 13 14 15 16 17 18
19;
#X obj 528 296 pack f f;
#X floatatom 198 380 5 0 0 0 - - -;
#X floatatom 239 383 5 0 0 0 - - -;
#X floatatom 279 385 5 0 0 0 - - -;
#X floatatom 321 386 5 0 0 0 - - -;
#X floatatom 364 384 5 0 0 0 - - -;
#X floatatom 407 383 5 0 0 0 - - -;
#X floatatom 448 385 5 0 0 0 - - -;
#X floatatom 488 387 5 0 0 0 - - -;
#X floatatom 530 388 5 0 0 0 - - -;
#X floatatom 573 386 5 0 0 0 - - -;
#X floatatom 618 385 5 0 0 0 - - -;
#X floatatom 659 387 5 0 0 0 - - -;
#X floatatom 699 389 5 0 0 0 - - -;
#X floatatom 741 390 5 0 0 0 - - -;
#X floatatom 784 388 5 0 0 0 - - -;
#X floatatom 822 386 5 0 0 0 - - -;
#X floatatom 863 388 5 0 0 0 - - -;
#X floatatom 903 390 5 0 0 0 - - -;
#X floatatom 945 391 5 0 0 0 - - -;
#X floatatom 988 389 5 0 0 0 - - -;
#X obj 494 57 metro 0.1;
#X obj 150 439 pack f f;
#X obj 170 408 bng 15 250 50 0 empty empty empty 17 7 0 10 -262144
-1 -1;
#X obj 193 552 pack f f;
#X obj 216 526 bng 15 250 50 0 empty empty empty 17 7 0 10 -262144
-1 -1;
#X obj 291 443 pack f f;
#X obj 314 417 bng 15 250 50 0 empty empty empty 17 7 0 10 -262144
-1 -1;
#X obj 345 553 pack f f;
#X obj 368 527 bng 15 250 50 0 empty empty empty 17 7 0 10 -262144
-1 -1;
#X obj 446 447 pack f f;
#X obj 469 421 bng 15 250 50 0 empty empty empty 17 7 0 10 -262144
-1 -1;
#X obj 492 563 pack f f;
#X obj 515 537 bng 15 250 50 0 empty empty empty 17 7 0 10 -262144
-1 -1;
#X obj 595 452 pack f f;
#X obj 618 426 bng 15 250 50 0 empty empty empty 17 7 0 10 -262144
-1 -1;
#X obj 664 562 pack f f;
#X obj 687 536 bng 15 250 50 0 empty empty empty 17 7 0 10 -262144
-1 -1;
#X obj 763 453 pack f f;
#X obj 786 427 bng 15 250 50 0 empty empty empty 17 7 0 10 -262144
-1 -1;
#X obj 828 566 pack f f;
#X obj 851 540 bng 15 250 50 0 empty empty empty 17 7 0 10 -262144
-1 -1;
#X obj 144 693 pack f f;
#X obj 167 667 bng 15 250 50 0 empty empty empty 17 7 0 10 -262144
-1 -1;
#X obj 190 811 pack f f;
#X obj 213 785 bng 15 250 50 0 empty empty empty 17 7 0 10 -262144
-1 -1;
#X obj 288 702 pack f f;
#X obj 311 676 bng 15 250 50 0 empty empty empty 17 7 0 10 -262144
-1 -1;
#X obj 342 812 pack f f;
#X obj 365 786 bng 15 250 50 0 empty empty empty 17 7 0 10 -262144
-1 -1;
#X obj 443 706 pack f f;
#X obj 466 680 bng 15 250 50 0 empty empty empty 17 7 0 10 -262144
-1 -1;
#X obj 489 822 pack f f;
#X obj 512 796 bng 15 250 50 0 empty empty empty 17 7 0 10 -262144
-1 -1;
#X obj 592 711 pack f f;
#X obj 615 685 bng 15 250 50 0 empty empty empty 17 7 0 10 -262144
-1 -1;
#X obj 661 821 pack f f;
#X obj 684 795 bng 15 250 50 0 empty empty empty 17 7 0 10 -262144
-1 -1;
#X obj 760 712 pack f f;
#X obj 783 686 bng 15 250 50 0 empty empty empty 17 7 0 10 -262144
-1 -1;
#X obj 825 825 pack f f;
#X obj 848 799 bng 15 250 50 0 empty empty empty 17 7 0 10 -262144
-1 -1;
#X obj 89 517 s g10;
#X obj 240 526 s g30;
#X obj 394 530 s g50;
#X obj 125 638 s g20;
#X obj 293 636 s g40;
#X obj 440 646 s g120;
#X obj 543 535 s g220;
#X obj 612 645 s g320;
#X obj 711 536 s g420;
#X obj 776 649 s g520;
#X obj 75 778 s g130;
#X obj 112 891 s g230;
#X obj 230 767 s g330;
#X obj 280 895 s g430;
#X obj 390 775 s g530;
#X obj 421 905 s g140;
#X obj 539 783 s g240;
#X obj 601 903 s g340;
#X obj 700 782 s g440;
#X obj 758 909 s g540;
#X obj 222 63 bng 15 250 50 0 empty empty empty 17 7 0 10 -262144 -1
-1;
#X msg 1180 168 1;
#X floatatom 1113 165 5 0 0 0 - - -;
#X obj 1103 12 tgl 15 0 empty empty empty 17 7 0 10 -262144 -1 -1 0
1;
#X obj 1130 58 f;
#X obj 1171 57 + 1;
#X floatatom 1130 97 5 0 0 0 - - -;
#X floatatom 1115 245 5 0 0 0 - - -;
#X obj 1168 248 pack f f;
#X obj 1134 9 metro 0.1;
#X obj 1328 18 route 0 1 2 3 4;
#X obj 1315 86 pack f f;
#X obj 1338 60 bng 15 250 50 0 empty empty empty 17 7 0 10 -262144
-1 -1;
#X obj 1329 340 pack f f;
#X obj 1356 308 bng 15 250 50 0 empty empty empty 17 7 0 10 -262144
-1 -1;
#X obj 1459 95 pack f f;
#X obj 1482 69 bng 15 250 50 0 empty empty empty 17 7 0 10 -262144
-1 -1;
#X obj 1526 343 pack f f;
#X obj 1549 317 bng 15 250 50 0 empty empty empty 17 7 0 10 -262144
-1 -1;
#X obj 1679 110 pack f f;
#X obj 1702 84 bng 15 250 50 0 empty empty empty 17 7 0 10 -262144
-1 -1;
#X obj 1116 201 array get drum2;
#X obj 1254 171 s b10;
#X obj 1254 201 s b120;
#X obj 1254 235 s b130;
#X obj 1302 168 s g10;
#X obj 1436 181 s b20;
#X obj 1434 209 s b220;
#X obj 1434 243 s b230;
#X obj 1627 193 s b30;
#X obj 1610 258 s b330;
#X obj 1601 289 s b340;
#X obj 1246 266 s b140;
#X obj 1609 224 s b320;
#X obj 1262 427 s b40;
#X obj 1255 452 s b420;
#X obj 1255 486 s b430;
#X text 987 204 10 120 130 140;
#X obj 1246 517 s b440;
#X obj 1462 425 s b50;
#X obj 1458 456 s b520;
#X obj 1458 490 s b530;
#X obj 1450 520 s b540;
#X obj 134 516 s b10;
#X obj 178 518 s c10;
#X obj 278 525 s b30;
#X obj 319 526 s c30;
#X obj 433 529 s b50;
#X obj 474 530 s c50;
#X obj 582 534 s b220;
#X obj 623 535 s c220;
#X obj 756 558 s b420;
#X obj 791 536 s c420;
#X obj 180 634 s b20;
#X obj 221 635 s c20;
#X obj 332 635 s b40;
#X obj 373 636 s c40;
#X obj 479 645 s b120;
#X obj 520 646 s c120;
#X obj 651 644 s b320;
#X obj 692 645 s c320;
#X obj 815 648 s b520;
#X obj 856 649 s c520;
#X obj 131 775 s b130;
#X obj 172 776 s c130;
#X obj 275 784 s b330;
#X obj 316 785 s c330;
#X obj 430 788 s b530;
#X obj 471 789 s c530;
#X obj 579 793 s b240;
#X obj 620 794 s c240;
#X obj 747 794 s b440;
#X obj 788 795 s c440;
#X obj 177 893 s b230;
#X obj 218 894 s c230;
#X obj 329 894 s b430;
#X obj 370 896 s c430;
#X obj 476 904 s b140;
#X obj 517 905 s c140;
#X obj 648 903 s b340;
#X obj 689 904 s c340;
#X obj 812 907 s b540;
#X obj 853 908 s c540;
#X obj 1309 202 s g120;
#X obj 1305 230 s g130;
#X obj 1307 262 s g140;
#X obj 1483 181 s g20;
#X obj 1490 211 s g220;
#X obj 1490 245 s g230;
#X obj 1666 192 s g30;
#X obj 1666 219 s g320;
#X obj 1663 254 s g330;
#X obj 1657 287 s g340;
#X obj 1314 424 s g40;
#X obj 1311 454 s g420;
#X obj 1311 488 s g430;
#X obj 1303 519 s g440;
#X obj 1513 425 s g50;
#X obj 1514 458 s g520;
#X obj 1513 492 s g530;
#X msg 1247 755 1;
#X floatatom 1180 752 5 0 0 0 - - -;
#X obj 1155 613 tgl 15 0 empty empty empty 17 7 0 10 -262144 -1 -1
0 1;
#X obj 1197 645 f;
#X msg 1140 645 0;
#X obj 1238 644 + 1;
#X floatatom 1197 684 5 0 0 0 - - -;
#X floatatom 1182 832 5 0 0 0 - - -;
#X obj 1235 835 pack f f;
#X obj 1201 596 metro 0.1;
#X obj 1201 707 moses 5;
#X obj 1395 605 route 0 1 2 3 4;
#X obj 1382 673 pack f f;
#X obj 1405 647 bng 15 250 50 0 empty empty empty 17 7 0 10 -262144
-1 -1;
#X obj 1396 927 pack f f;
#X obj 1423 895 bng 15 250 50 0 empty empty empty 17 7 0 10 -262144
-1 -1;
#X obj 1526 682 pack f f;
#X obj 1549 656 bng 15 250 50 0 empty empty empty 17 7 0 10 -262144
-1 -1;
#X obj 1593 930 pack f f;
#X obj 1616 904 bng 15 250 50 0 empty empty empty 17 7 0 10 -262144
-1 -1;
#X obj 1746 697 pack f f;
#X obj 1769 671 bng 15 250 50 0 empty empty empty 17 7 0 10 -262144
-1 -1;
#X obj 1321 758 s b10;
#X obj 1321 788 s b120;
#X obj 1321 822 s b130;
#X obj 1503 768 s b20;
#X obj 1501 796 s b220;
#X obj 1501 830 s b230;
#X obj 1694 780 s b30;
#X obj 1677 845 s b330;
#X obj 1668 876 s b340;
#X obj 1313 853 s b140;
#X obj 1676 811 s b320;
#X obj 1329 1014 s b40;
#X obj 1322 1039 s b420;
#X obj 1322 1073 s b430;
#X obj 1313 1104 s b440;
#X obj 1529 1012 s b50;
#X obj 1525 1043 s b520;
#X obj 1525 1077 s b530;
#X obj 1517 1107 s b540;
#X obj 1413 757 s c10;
#X obj 1433 791 s c120;
#X obj 1437 819 s c130;
#X obj 1429 851 s c140;
#X obj 1611 772 s c20;
#X obj 1609 799 s c220;
#X obj 1609 833 s c230;
#X obj 1792 778 s c30;
#X obj 1789 808 s c320;
#X obj 1789 842 s c330;
#X obj 1781 873 s c340;
#X obj 1426 1010 s c40;
#X obj 1429 1044 s c420;
#X obj 1429 1078 s c430;
#X obj 1427 1112 s c440;
#X obj 1641 1019 s c50;
#X obj 1632 1048 s c520;
#X obj 1632 1082 s c530;
#X obj 1639 1115 s c540;
#X obj 592 178 bng 15 250 50 0 empty empty empty 17 7 0 10 -262144
-1 -1;
#X obj 1200 115 bng 15 250 50 0 empty empty empty 17 7 0 10 -262144
-1 -1;
#X obj 1288 640 bng 15 250 50 0 empty empty empty 17 7 0 10 -262144
-1 -1;
#X obj 1183 788 array get drum3;
#X obj 129 478 route 0 1 2;
#X obj 277 487 route 0 1 2;
#X obj 432 491 route 0 1 2;
#X obj 581 496 route 0 1 2;
#X obj 749 497 route 0 1 2;
#X obj 179 596 route 0 1 2;
#X obj 331 596 route 0 1 2;
#X obj 478 607 route 0 1 2;
#X obj 650 605 route 0 1 2;
#X obj 814 610 route 0 1 2;
#X obj 130 737 route 0 1 2;
#X obj 274 746 route 0 1 2;
#X obj 429 750 route 0 1 2;
#X obj 578 755 route 0 1 2;
#X obj 747 756 route 0 1 2;
#X obj 176 855 route 0 1 2;
#X obj 328 856 route 0 1 2;
#X obj 475 866 route 0 1 2;
#X obj 647 865 route 0 1 2;
#X obj 811 869 route 0 1 2;
#X obj 333 44 bng 15 250 50 0 empty empty empty 17 7 0 10 -262144 -1
-1;
#X obj 239 18 del 20;
#X obj 1301 130 route 0 1 2;
#X obj 1447 136 route 0 1 2;
#X obj 1657 145 route 0 1 2;
#X obj 1315 384 route 0 1 2;
#X obj 1512 387 route 0 1 2;
#X obj 1368 716 route 2 1 0;
#X obj 1512 726 route 2 1 0;
#X obj 1725 733 route 2 1 0;
#X obj 1382 971 route 2 1 0;
#X obj 1577 974 route 2 1 0;
#X text 1002 823 0 = gbc 1 = bg(c) 2 = c(g)b;
#X obj 1346 169 s g10;
#X obj 1371 201 s g120;
#X obj 1370 232 s g130;
#X obj 1362 264 s g140;
#X obj 1544 184 s g20;
#X obj 1542 211 s g220;
#X obj 1542 246 s g230;
#X obj 1426 274 s b240;
#X obj 1482 276 s g240;
#X obj 1534 277 s g240;
#X obj 1725 191 s g30;
#X obj 1722 221 s g320;
#X obj 1722 255 s g330;
#X obj 1714 286 s g340;
#X obj 1357 423 s g40;
#X obj 1362 457 s g420;
#X obj 1362 491 s g430;
#X obj 1360 525 s g440;
#X obj 1574 432 s g50;
#X obj 1565 461 s g520;
#X obj 1565 495 s g530;
#X obj 1506 523 s g540;
#X obj 1572 528 s g540;
#X obj 1369 755 s c10;
#X obj 1376 789 s c120;
#X obj 1372 817 s c130;
#X obj 1374 849 s c140;
#X obj 1550 768 s c20;
#X obj 1557 798 s c220;
#X obj 1557 832 s c230;
#X obj 1601 864 s c240;
#X obj 1550 863 s c240;
#X obj 1493 862 s b240;
#X obj 1733 779 s c30;
#X obj 1733 806 s c320;
#X obj 1730 841 s c330;
#X obj 1725 871 s c340;
#X obj 1381 1011 s c40;
#X obj 1378 1041 s c420;
#X obj 1378 1075 s c430;
#X obj 1370 1106 s c440;
#X obj 1580 1012 s c50;
#X obj 1581 1045 s c520;
#X obj 1580 1079 s c530;
#X obj 1573 1110 s c540;
#X obj 1131 124 moses 6;
#X msg 1073 58 0;
#X connect 0 0 34 0;
#X connect 0 0 38 0;
#X connect 0 0 36 0;
#X connect 0 0 42 0;
#X connect 0 0 40 0;
#X connect 0 0 44 0;
#X connect 0 0 46 0;
#X connect 0 0 48 0;
#X connect 0 0 50 0;
#X connect 0 0 52 0;
#X connect 0 0 54 0;
#X connect 0 0 56 0;
#X connect 0 0 58 0;
#X connect 0 0 60 0;
#X connect 0 0 62 0;
#X connect 0 0 64 0;
#X connect 0 0 66 0;
#X connect 0 0 68 0;
#X connect 0 0 70 0;
#X connect 0 0 72 0;
#X connect 0 0 94 0;
#X connect 0 0 105 0;
#X connect 0 0 109 0;
#X connect 0 0 113 0;
#X connect 0 0 107 0;
#X connect 0 0 111 0;
#X connect 0 0 206 0;
#X connect 0 0 210 0;
#X connect 0 0 214 0;
#X connect 0 0 208 0;
#X connect 0 0 212 0;
#X connect 1 0 10 0;
#X connect 2 0 1 1;
#X connect 3 0 1 0;
#X connect 3 0 12 0;
#X connect 4 0 2 0;
#X connect 4 0 33 0;
#X connect 5 0 8 0;
#X connect 5 0 7 0;
#X connect 6 0 5 0;
#X connect 7 0 5 1;
#X connect 8 0 9 0;
#X connect 9 0 3 0;
#X connect 9 1 254 0;
#X connect 10 0 12 1;
#X connect 11 0 13 0;
#X connect 11 1 14 0;
#X connect 11 2 15 0;
#X connect 11 3 16 0;
#X connect 11 4 17 0;
#X connect 11 5 18 0;
#X connect 11 6 19 0;
#X connect 11 7 20 0;
#X connect 11 8 21 0;
#X connect 11 9 22 0;
#X connect 11 10 23 0;
#X connect 11 11 24 0;
#X connect 11 12 25 0;
#X connect 11 13 26 0;
#X connect 11 14 27 0;
#X connect 11 15 28 0;
#X connect 11 16 29 0;
#X connect 11 17 30 0;
#X connect 11 18 31 0;
#X connect 11 19 32 0;
#X connect 12 0 11 0;
#X connect 13 0 34 1;
#X connect 13 0 35 0;
#X connect 14 0 36 1;
#X connect 14 0 37 0;
#X connect 15 0 38 1;
#X connect 15 0 39 0;
#X connect 16 0 40 1;
#X connect 16 0 41 0;
#X connect 17 0 42 1;
#X connect 17 0 43 0;
#X connect 18 0 44 1;
#X connect 18 0 45 0;
#X connect 19 0 46 1;
#X connect 19 0 47 0;
#X connect 20 0 48 1;
#X connect 20 0 49 0;
#X connect 21 0 50 1;
#X connect 21 0 51 0;
#X connect 22 0 52 1;
#X connect 22 0 53 0;
#X connect 23 0 54 1;
#X connect 23 0 55 0;
#X connect 24 0 56 1;
#X connect 24 0 57 0;
#X connect 25 0 58 1;
#X connect 25 0 59 0;
#X connect 26 0 60 1;
#X connect 26 0 61 0;
#X connect 27 0 62 1;
#X connect 27 0 63 0;
#X connect 28 0 64 1;
#X connect 28 0 65 0;
#X connect 29 0 66 1;
#X connect 29 0 67 0;
#X connect 30 0 68 1;
#X connect 30 0 69 0;
#X connect 31 0 70 1;
#X connect 31 0 71 0;
#X connect 32 0 72 1;
#X connect 32 0 73 0;
#X connect 33 0 5 0;
#X connect 34 0 258 0;
#X connect 35 0 34 0;
#X connect 36 0 263 0;
#X connect 37 0 36 0;
#X connect 38 0 259 0;
#X connect 39 0 38 0;
#X connect 40 0 264 0;
#X connect 41 0 40 0;
#X connect 42 0 260 0;
#X connect 43 0 42 0;
#X connect 44 0 265 0;
#X connect 45 0 44 0;
#X connect 46 0 261 0;
#X connect 47 0 46 0;
#X connect 48 0 266 0;
#X connect 49 0 48 0;
#X connect 50 0 262 0;
#X connect 51 0 50 0;
#X connect 52 0 267 0;
#X connect 53 0 52 0;
#X connect 54 0 268 0;
#X connect 55 0 54 0;
#X connect 56 0 273 0;
#X connect 57 0 56 0;
#X connect 58 0 269 0;
#X connect 59 0 58 0;
#X connect 60 0 274 0;
#X connect 61 0 60 0;
#X connect 62 0 270 0;
#X connect 63 0 62 0;
#X connect 64 0 275 0;
#X connect 65 0 64 0;
#X connect 66 0 271 0;
#X connect 67 0 66 0;
#X connect 68 0 276 0;
#X connect 69 0 68 0;
#X connect 70 0 272 0;
#X connect 71 0 70 0;
#X connect 72 0 277 0;
#X connect 73 0 72 0;
#X connect 94 0 6 0;
#X connect 94 0 198 0;
#X connect 94 0 279 0;
#X connect 94 0 337 0;
#X connect 95 0 115 1;
#X connect 96 0 102 0;
#X connect 96 0 115 0;
#X connect 97 0 95 0;
#X connect 97 0 103 0;
#X connect 98 0 100 0;
#X connect 98 0 99 0;
#X connect 99 0 98 1;
#X connect 100 0 336 0;
#X connect 101 0 102 1;
#X connect 102 0 104 0;
#X connect 103 0 98 0;
#X connect 104 0 105 1;
#X connect 104 0 106 0;
#X connect 104 1 109 1;
#X connect 104 1 110 0;
#X connect 104 2 113 1;
#X connect 104 2 114 0;
#X connect 104 3 107 1;
#X connect 104 3 108 0;
#X connect 104 4 112 0;
#X connect 104 4 111 1;
#X connect 105 0 280 0;
#X connect 106 0 105 0;
#X connect 107 0 283 0;
#X connect 108 0 107 0;
#X connect 109 0 281 0;
#X connect 110 0 109 0;
#X connect 111 0 284 0;
#X connect 112 0 111 0;
#X connect 113 0 282 0;
#X connect 114 0 113 0;
#X connect 115 0 101 0;
#X connect 194 0 257 1;
#X connect 195 0 202 0;
#X connect 195 0 257 0;
#X connect 196 0 194 0;
#X connect 196 0 203 0;
#X connect 197 0 200 0;
#X connect 197 0 199 0;
#X connect 198 0 197 0;
#X connect 199 0 197 1;
#X connect 200 0 204 0;
#X connect 201 0 202 1;
#X connect 202 0 205 0;
#X connect 203 0 197 0;
#X connect 204 0 195 0;
#X connect 204 1 256 0;
#X connect 205 0 206 1;
#X connect 205 0 207 0;
#X connect 205 1 210 1;
#X connect 205 1 211 0;
#X connect 205 2 214 1;
#X connect 205 2 215 0;
#X connect 205 3 208 1;
#X connect 205 3 209 0;
#X connect 205 4 213 0;
#X connect 205 4 212 1;
#X connect 206 0 285 0;
#X connect 207 0 206 0;
#X connect 208 0 288 0;
#X connect 209 0 208 0;
#X connect 210 0 286 0;
#X connect 211 0 210 0;
#X connect 212 0 289 0;
#X connect 213 0 212 0;
#X connect 214 0 287 0;
#X connect 215 0 214 0;
#X connect 254 0 4 0;
#X connect 255 0 97 0;
#X connect 256 0 196 0;
#X connect 257 0 201 0;
#X connect 258 0 74 0;
#X connect 258 1 137 0;
#X connect 258 2 138 0;
#X connect 259 0 75 0;
#X connect 259 1 139 0;
#X connect 259 2 140 0;
#X connect 260 0 76 0;
#X connect 260 1 141 0;
#X connect 260 2 142 0;
#X connect 261 0 80 0;
#X connect 261 1 143 0;
#X connect 261 2 144 0;
#X connect 262 0 82 0;
#X connect 262 1 145 0;
#X connect 262 2 146 0;
#X connect 263 0 77 0;
#X connect 263 1 147 0;
#X connect 263 2 148 0;
#X connect 264 0 78 0;
#X connect 264 1 149 0;
#X connect 264 2 150 0;
#X connect 265 0 79 0;
#X connect 265 1 151 0;
#X connect 265 2 152 0;
#X connect 266 0 81 0;
#X connect 266 1 153 0;
#X connect 266 2 154 0;
#X connect 267 0 83 0;
#X connect 267 1 155 0;
#X connect 267 2 156 0;
#X connect 268 0 84 0;
#X connect 268 1 157 0;
#X connect 268 2 158 0;
#X connect 269 0 86 0;
#X connect 269 1 159 0;
#X connect 269 2 160 0;
#X connect 270 0 88 0;
#X connect 270 1 161 0;
#X connect 270 2 162 0;
#X connect 271 0 90 0;
#X connect 271 1 163 0;
#X connect 271 2 164 0;
#X connect 272 0 92 0;
#X connect 272 1 165 0;
#X connect 272 2 166 0;
#X connect 273 0 85 0;
#X connect 273 1 167 0;
#X connect 273 2 168 0;
#X connect 274 0 87 0;
#X connect 274 1 169 0;
#X connect 274 2 170 0;
#X connect 275 0 89 0;
#X connect 275 1 171 0;
#X connect 275 2 172 0;
#X connect 276 0 91 0;
#X connect 276 1 173 0;
#X connect 276 2 174 0;
#X connect 277 0 93 0;
#X connect 277 1 175 0;
#X connect 277 2 176 0;
#X connect 278 0 4 0;
#X connect 278 0 97 0;
#X connect 278 0 196 0;
#X connect 279 0 278 0;
#X connect 280 0 116 0;
#X connect 280 0 117 0;
#X connect 280 0 118 0;
#X connect 280 0 126 0;
#X connect 280 1 119 0;
#X connect 280 1 177 0;
#X connect 280 1 178 0;
#X connect 280 1 179 0;
#X connect 280 2 291 0;
#X connect 280 2 292 0;
#X connect 280 2 293 0;
#X connect 280 2 294 0;
#X connect 281 0 120 0;
#X connect 281 0 121 0;
#X connect 281 0 122 0;
#X connect 281 0 298 0;
#X connect 281 1 180 0;
#X connect 281 1 181 0;
#X connect 281 1 182 0;
#X connect 281 1 299 0;
#X connect 281 2 295 0;
#X connect 281 2 296 0;
#X connect 281 2 297 0;
#X connect 281 2 300 0;
#X connect 282 0 123 0;
#X connect 282 0 124 0;
#X connect 282 0 125 0;
#X connect 282 0 127 0;
#X connect 282 1 183 0;
#X connect 282 1 184 0;
#X connect 282 1 185 0;
#X connect 282 1 186 0;
#X connect 282 2 301 0;
#X connect 282 2 302 0;
#X connect 282 2 303 0;
#X connect 282 2 304 0;
#X connect 283 0 128 0;
#X connect 283 0 129 0;
#X connect 283 0 130 0;
#X connect 283 0 132 0;
#X connect 283 1 187 0;
#X connect 283 1 188 0;
#X connect 283 1 189 0;
#X connect 283 1 190 0;
#X connect 283 2 305 0;
#X connect 283 2 306 0;
#X connect 283 2 307 0;
#X connect 283 2 308 0;
#X connect 284 0 133 0;
#X connect 284 0 134 0;
#X connect 284 0 135 0;
#X connect 284 0 136 0;
#X connect 284 1 191 0;
#X connect 284 1 192 0;
#X connect 284 1 193 0;
#X connect 284 1 312 0;
#X connect 284 2 309 0;
#X connect 284 2 310 0;
#X connect 284 2 311 0;
#X connect 284 2 313 0;
#X connect 285 0 216 0;
#X connect 285 0 217 0;
#X connect 285 0 218 0;
#X connect 285 0 225 0;
#X connect 285 1 314 0;
#X connect 285 1 315 0;
#X connect 285 1 316 0;
#X connect 285 1 317 0;
#X connect 285 2 235 0;
#X connect 285 2 236 0;
#X connect 285 2 237 0;
#X connect 285 2 238 0;
#X connect 286 0 219 0;
#X connect 286 0 220 0;
#X connect 286 0 221 0;
#X connect 286 0 323 0;
#X connect 286 1 318 0;
#X connect 286 1 319 0;
#X connect 286 1 320 0;
#X connect 286 1 322 0;
#X connect 286 2 239 0;
#X connect 286 2 240 0;
#X connect 286 2 241 0;
#X connect 286 2 321 0;
#X connect 287 0 222 0;
#X connect 287 0 223 0;
#X connect 287 0 224 0;
#X connect 287 0 226 0;
#X connect 287 1 324 0;
#X connect 287 1 325 0;
#X connect 287 1 326 0;
#X connect 287 1 327 0;
#X connect 287 2 242 0;
#X connect 287 2 243 0;
#X connect 287 2 244 0;
#X connect 287 2 245 0;
#X connect 288 0 227 0;
#X connect 288 0 228 0;
#X connect 288 0 229 0;
#X connect 288 0 230 0;
#X connect 288 1 328 0;
#X connect 288 1 329 0;
#X connect 288 1 330 0;
#X connect 288 1 331 0;
#X connect 288 2 246 0;
#X connect 288 2 247 0;
#X connect 288 2 248 0;
#X connect 288 2 249 0;
#X connect 289 0 231 0;
#X connect 289 0 232 0;
#X connect 289 0 233 0;
#X connect 289 0 234 0;
#X connect 289 1 332 0;
#X connect 289 1 333 0;
#X connect 289 1 334 0;
#X connect 289 1 335 0;
#X connect 289 2 250 0;
#X connect 289 2 251 0;
#X connect 289 2 252 0;
#X connect 289 2 253 0;
#X connect 336 0 96 0;
#X connect 336 1 255 0;
#X connect 337 0 98 0;
#X restore 468 106 pd rhythm;
#X obj 460 220 loadbang;
#X msg 626 279 0 0 0 0 0 0 0 0 0 0 0 0 0 0 0 0 0 0 0 0;
#X msg 613 375 0 0 0 0 0 0 0 0 0 0 0 0 0 0 0 0 0 0 0 0;
#X text 880 630 0 1 2 \, short to long;
#X msg 172 843 0;
#X msg 25 620 196;
#X msg 86 616 246.95;
#X msg 151 625 293.66;
#X msg 16 661 146.83;
#X msg 92 659 174.61;
#X msg 158 663 220;
#X obj 88 857 spigot;
#X msg 166 810 1;
#X msg 295 823 0;
#X obj 251 854 spigot;
#X msg 289 790 1;
#X msg 14 767 349.23;
#X msg 87 766 440;
#X msg 16 798 261.63;
#X msg 83 799 329.63;
#X text 755 872 release;
#X obj 700 802 spigot;
#X obj 753 801 spigot;
#X obj 814 792 spigot;
#X obj 818 629 sel 0 1;
#X msg 779 657 1;
#X msg 792 682 0;
#X msg 832 659 1;
#X msg 854 684 0;
#X msg 894 663 1;
#X obj 697 830 bng 15 250 50 0 empty empty empty 17 7 0 10 -262144
-1 -1;
#X obj 758 832 bng 15 250 50 0 empty empty empty 17 7 0 10 -262144
-1 -1;
#X obj 818 829 bng 15 250 50 0 empty empty empty 17 7 0 10 -262144
-1 -1;
#X obj 387 865 osc~;
#X obj 439 848 osc~;
#X obj 514 836 osc~;
#X obj 435 887 +~;
#X obj 487 876 +~;
#X obj 715 936 dac~;
#X obj 558 896 /~;
#X obj 106 891 osc~;
#X obj 162 899 osc~;
#X obj 126 920 +~;
#X obj 473 932 +~;
#X obj 646 900 *~;
#X obj 857 913 line~;
#X msg 915 871 1 20;
#X msg 902 696 0;
#X msg 812 876 0 350;
#X msg 23 575 261.63;
#X msg 94 572 329.63;
#X msg 14 740 123.47;
#X msg 88 736 146.83;
#X msg 151 579 196;
#X obj 595 780 loadbang;
#X text 1490 441 1- 123 = same 2- 12 = same \, 3 = diff (rand) 3- 1
= same \, 23 = diff (rand);
#X obj 1111 935 adsrsynth;
#X msg 1061 538 60;
#X obj 1132 486 tgl 15 0 empty empty empty 17 7 0 10 -262144 -1 -1
1 1;
#X obj 1394 641 random 2;
#X floatatom 1394 667 5 0 0 0 - - -;
#X obj 1394 692 sel 0;
#X obj 1520 673 +;
#X obj 1373 559 random 3;
#X floatatom 1536 605 5 0 0 0 - - -;
#X msg 1383 725 0;
#X msg 1386 750 1;
#X msg 1434 725 0;
#X msg 1432 751 1;
#X obj 1482 630 r curr;
#X obj 1068 627 s curr;
#X floatatom 1520 699 5 0 0 0 - - -;
#X floatatom 1581 693 5 0 0 0 - - -;
#X obj 1369 823 spigot;
#X obj 1443 827 spigot;
#X floatatom 1370 849 5 0 0 0 - - -;
#X floatatom 1443 853 5 0 0 0 - - -;
#X obj 1581 667 -;
#X obj 1119 562 bng 15 250 50 0 empty empty empty 17 7 0 10 -262144
-1 -1;
#X obj 1147 621 f;
#X floatatom 1158 726 5 0 0 0 - curr -;
#X floatatom 1098 764 5 0 0 0 - - -;
#X msg 995 834 60;
#X msg 1014 861 62;
#X msg 1034 835 64;
#X msg 1054 862 65;
#X msg 1072 834 67;
#X msg 1091 862 69;
#X msg 1111 836 71;
#X msg 1130 863 72;
#X msg 1148 837 74;
#X msg 1167 864 76;
#X obj 1676 562 sel 0 1 2;
#X obj 1690 651 s timbre;
#X msg 1648 612 49;
#X msg 1701 607 50;
#X msg 1736 617 51;
#X obj 1387 589 + 1;
#X obj 29 341 f;
#X msg 80 344 1;
#X obj 30 370 + 1;
#X obj 29 316 metro 1500;
#X obj 30 283 tgl 15 0 empty empty empty 17 7 0 10 -262144 -1 -1 1
1;
#X obj 706 708 del 1250;
#X obj 636 712 del 1000;
#X obj 564 715 del 500;
#X obj 1018 747 spigot;
#X obj 1180 760 mod 10;
#X obj 1019 796 sel 1 2 3 4 5 6 7 8 9 0;
#X obj 1175 470 metro 750;
#X obj 991 708 random 20;
#X msg 23 238 0;
#X msg 81 239 1;
#X msg 129 238 2;
#X obj 449 333 sel 0 1;
#X msg 410 361 1;
#X msg 423 386 0;
#X msg 463 363 1;
#X msg 485 388 0;
#X msg 525 367 1;
#X msg 533 400 0;
#X obj 210 548 bng 15 250 50 0 empty empty empty 17 7 0 10 -262144
-1 -1;
#X obj 243 512 bng 15 250 50 0 empty empty empty 17 7 0 10 -262144
-1 -1;
#X obj 262 545 bng 15 250 50 0 empty empty empty 17 7 0 10 -262144
-1 -1;
#X obj 228 379 f;
#X msg 279 382 1;
#X obj 229 408 + 1;
#X obj 228 354 metro 1500;
#X obj 229 321 tgl 15 0 empty empty empty 17 7 0 10 -262144 -1 -1 0
1;
#X obj 220 460 sel 0 1 2;
#X obj 229 433 mod 3;
#X obj 340 661 bng 15 250 50 0 empty empty empty 17 7 0 10 -262144
-1 -1;
#X obj 374 620 bng 15 250 50 0 empty empty empty 17 7 0 10 -262144
-1 -1;
#X obj 400 645 bng 15 250 50 0 empty empty empty 17 7 0 10 -262144
-1 -1;
#X obj 358 492 f;
#X msg 409 495 1;
#X obj 359 521 + 1;
#X obj 358 467 metro 1500;
#X obj 359 434 tgl 15 0 empty empty empty 17 7 0 10 -262144 -1 -1 0
1;
#X obj 350 573 sel 0 1 2 3;
#X obj 359 546 mod 4;
#X obj 21 422 sel 0 2 1 3;
#X obj 30 395 mod 4;
#X obj 1098 188 s so;
#X msg 1052 154 0;
#X msg 1091 153 1;
#X msg 1131 151 2;
#X msg 1179 132 0;
#X msg 1218 131 1;
#X msg 1258 129 2;
#X msg 1142 219 0;
#X msg 1181 218 1;
#X msg 1242 236 2;
#X obj 1225 166 s de;
#X obj 1188 253 s sp;
#X obj 478 265 r so;
#X obj 478 291 +;
#X obj 519 264 r split;
#X obj 808 530 r de;
#X obj 860 527 r split;
#X obj 836 567 +;
#X obj 421 271 mod 3;
#X obj 836 593 mod 3;
#X obj 1647 200 +;
#X obj 1615 166 r sp;
#X obj 1683 168 r split;
#X obj 1647 226 mod 3;
#X obj 1647 252 sel 0 1;
#X msg 1418 522 3;
#X msg 1460 527 5;
#X msg 1510 528 8;
#X msg 1060 676 3;
#X msg 1104 678 10;
#X msg 1144 682 20;
#N canvas 597 124 1030 503 calculateMel 0;
#X obj 245 46 sel 0 1;
#X msg 223 77 1;
#X msg 265 77 1;
#X msg 306 81 1;
#X msg 221 104 0;
#X msg 266 110 0;
#X msg 304 108 0;
#X obj 53 238 spigot;
#X obj 136 199 +;
#X obj 167 157 random 2;
#X obj 197 204 + 2;
#X obj 127 242 spigot;
#X obj 203 245 spigot;
#X obj 165 128 bng 15 250 50 0 empty empty empty 17 7 0 10 -262144
-1 -1;
#X obj 245 20 r split;
#X floatatom 107 283 5 0 0 0 - - -;
#X obj 544 53 sel 0 1;
#X msg 522 84 1;
#X msg 564 84 1;
#X msg 605 88 1;
#X msg 520 111 0;
#X msg 565 117 0;
#X msg 603 115 0;
#X obj 352 245 spigot;
#X obj 435 206 +;
#X obj 466 164 random 2;
#X obj 496 211 + 2;
#X obj 426 249 spigot;
#X obj 502 252 spigot;
#X obj 464 135 bng 15 250 50 0 empty empty empty 17 7 0 10 -262144
-1 -1;
#X obj 544 27 r split;
#X floatatom 406 290 5 0 0 0 - - -;
#X obj 860 58 sel 0 1;
#X msg 838 89 1;
#X msg 880 89 1;
#X msg 921 93 1;
#X msg 836 116 0;
#X msg 881 122 0;
#X msg 919 120 0;
#X obj 697 153 r sp;
#X obj 668 250 spigot;
#X obj 751 211 +;
#X obj 782 169 random 2;
#X obj 812 216 + 2;
#X obj 742 254 spigot;
#X obj 818 257 spigot;
#X obj 780 140 bng 15 250 50 0 empty empty empty 17 7 0 10 -262144
-1 -1;
#X obj 860 32 r split;
#X floatatom 722 295 5 0 0 0 - - -;
#X obj 142 389 outlet;
#X obj 361 395 outlet;
#X obj 735 377 outlet;
#X obj 82 141 r so;
#X obj 381 148 r de;
#X floatatom 37 107 5 0 0 0 - - -;
#X floatatom 374 109 5 0 0 0 - - -;
#X floatatom 696 104 5 0 0 0 - - -;
#X connect 0 0 1 0;
#X connect 0 0 4 0;
#X connect 0 1 2 0;
#X connect 0 1 5 0;
#X connect 0 2 3 0;
#X connect 0 2 6 0;
#X connect 1 0 7 1;
#X connect 2 0 13 0;
#X connect 2 0 11 1;
#X connect 3 0 12 1;
#X connect 4 0 11 1;
#X connect 4 0 12 1;
#X connect 5 0 7 1;
#X connect 5 0 12 1;
#X connect 6 0 7 1;
#X connect 6 0 11 1;
#X connect 7 0 15 0;
#X connect 8 0 11 0;
#X connect 9 0 8 1;
#X connect 10 0 12 0;
#X connect 11 0 15 0;
#X connect 12 0 15 0;
#X connect 13 0 9 0;
#X connect 14 0 0 0;
#X connect 15 0 49 0;
#X connect 16 0 17 0;
#X connect 16 0 20 0;
#X connect 16 1 18 0;
#X connect 16 1 21 0;
#X connect 16 2 19 0;
#X connect 16 2 22 0;
#X connect 17 0 23 1;
#X connect 18 0 29 0;
#X connect 18 0 27 1;
#X connect 19 0 28 1;
#X connect 20 0 27 1;
#X connect 20 0 28 1;
#X connect 21 0 23 1;
#X connect 21 0 28 1;
#X connect 22 0 23 1;
#X connect 22 0 27 1;
#X connect 23 0 31 0;
#X connect 24 0 27 0;
#X connect 25 0 24 1;
#X connect 26 0 28 0;
#X connect 27 0 31 0;
#X connect 28 0 31 0;
#X connect 29 0 25 0;
#X connect 30 0 16 0;
#X connect 31 0 50 0;
#X connect 32 0 33 0;
#X connect 32 0 36 0;
#X connect 32 1 34 0;
#X connect 32 1 37 0;
#X connect 32 2 35 0;
#X connect 32 2 38 0;
#X connect 33 0 40 1;
#X connect 34 0 46 0;
#X connect 34 0 44 1;
#X connect 35 0 45 1;
#X connect 36 0 44 1;
#X connect 36 0 45 1;
#X connect 37 0 40 1;
#X connect 37 0 45 1;
#X connect 38 0 40 1;
#X connect 38 0 44 1;
#X connect 39 0 40 0;
#X connect 39 0 41 0;
#X connect 39 0 43 0;
#X connect 39 0 56 0;
#X connect 40 0 48 0;
#X connect 41 0 44 0;
#X connect 42 0 41 1;
#X connect 43 0 45 0;
#X connect 44 0 48 0;
#X connect 45 0 48 0;
#X connect 46 0 42 0;
#X connect 47 0 32 0;
#X connect 48 0 51 0;
#X connect 52 0 7 0;
#X connect 52 0 8 0;
#X connect 52 0 10 0;
#X connect 52 0 54 0;
#X connect 53 0 23 0;
#X connect 53 0 24 0;
#X connect 53 0 26 0;
#X connect 53 0 55 0;
#X restore 1656 724 pd calculateMel;
#X floatatom 1647 778 5 0 0 0 - - -;
#X floatatom 1707 768 5 0 0 0 - - -;
#X floatatom 1771 768 5 0 0 0 - - -;
#X obj 1415 473 sel 0 1 2;
#X obj 1217 637 sel 0 1 2;
#X obj 522 441 r chords;
#X obj 510 472 bng 15 250 50 0 empty empty empty 17 7 0 10 -262144
-1 -1;
#X obj 357 321 spigot;
#X obj 551 487 del 100;
#X obj 559 522 bng 15 250 50 0 empty empty empty 17 7 0 10 -262144
-1 -1;
#X msg 507 517 1;
#X msg 564 554 0;
#X obj 474 71 f;
#X obj 350 61 metro 100;
#X obj 303 27 loadbang;
#X obj 307 77 tgl 15 0 empty empty empty 17 7 0 10 -262144 -1 -1 1
1;
#X obj 1647 803 mod 3;
#X obj 1707 793 mod 3;
#X obj 1771 793 mod 3;
#X msg 593 817 40;
#X connect 1 0 2 0;
#X connect 2 0 18 0;
#X connect 3 0 23 0;
#X connect 4 0 29 0;
#X connect 6 0 7 0;
#X connect 9 0 8 0;
#X connect 9 0 12 0;
#X connect 9 0 13 0;
#X connect 10 0 7 0;
#X connect 11 0 7 0;
#X connect 15 0 14 0;
#X connect 17 0 16 0;
#X connect 18 0 147 0;
#X connect 18 0 180 0;
#X connect 18 1 20 0;
#X connect 19 0 85 0;
#X connect 19 0 86 0;
#X connect 19 0 89 0;
#X connect 19 0 87 0;
#X connect 20 0 148 0;
#X connect 20 0 181 0;
#X connect 20 1 149 0;
#X connect 20 1 182 0;
#X connect 21 0 41 0;
#X connect 21 0 42 0;
#X connect 21 0 43 0;
#X connect 21 0 52 0;
#X connect 21 0 53 0;
#X connect 22 0 55 0;
#X connect 22 0 54 0;
#X connect 22 0 46 0;
#X connect 22 0 45 0;
#X connect 22 0 44 0;
#X connect 23 0 24 0;
#X connect 24 0 25 0;
#X connect 24 0 183 0;
#X connect 24 1 26 0;
#X connect 25 0 37 0;
#X connect 25 0 38 0;
#X connect 26 0 27 0;
#X connect 26 0 184 0;
#X connect 26 1 28 0;
#X connect 26 1 185 0;
#X connect 27 0 15 0;
#X connect 27 0 38 0;
#X connect 28 0 15 0;
#X connect 28 0 17 0;
#X connect 29 0 30 0;
#X connect 30 0 6 0;
#X connect 30 0 186 0;
#X connect 30 1 32 0;
#X connect 31 0 40 0;
#X connect 31 0 49 0;
#X connect 32 0 10 0;
#X connect 32 0 187 0;
#X connect 32 1 11 0;
#X connect 32 1 188 0;
#X connect 33 0 48 0;
#X connect 33 0 49 0;
#X connect 34 0 51 0;
#X connect 34 0 40 0;
#X connect 36 0 9 0;
#X connect 36 0 25 0;
#X connect 36 0 31 0;
#X connect 36 0 94 0;
#X connect 36 0 138 0;
#X connect 37 0 14 0;
#X connect 38 0 16 0;
#X connect 40 0 47 1;
#X connect 40 0 76 0;
#X connect 41 0 69 0;
#X connect 42 0 70 0;
#X connect 43 0 71 0;
#X connect 44 0 69 0;
#X connect 45 0 70 0;
#X connect 46 0 71 0;
#X connect 47 0 76 0;
#X connect 48 0 47 1;
#X connect 49 0 50 1;
#X connect 49 0 77 0;
#X connect 50 0 77 0;
#X connect 51 0 50 1;
#X connect 52 0 47 0;
#X connect 53 0 50 0;
#X connect 54 0 47 0;
#X connect 55 0 50 0;
#X connect 57 0 66 0;
#X connect 58 0 67 0;
#X connect 59 0 68 0;
#X connect 60 0 61 0;
#X connect 60 0 62 0;
#X connect 60 1 63 0;
#X connect 60 1 64 0;
#X connect 60 2 65 0;
#X connect 60 2 83 0;
#X connect 61 0 57 1;
#X connect 62 0 58 1;
#X connect 62 0 59 1;
#X connect 63 0 58 1;
#X connect 64 0 59 1;
#X connect 64 0 57 1;
#X connect 65 0 59 1;
#X connect 66 0 84 0;
#X connect 67 0 84 0;
#X connect 68 0 84 0;
#X connect 69 0 72 0;
#X connect 70 0 72 1;
#X connect 71 0 73 1;
#X connect 72 0 73 0;
#X connect 73 0 79 0;
#X connect 75 0 80 0;
#X connect 76 0 78 0;
#X connect 77 0 78 1;
#X connect 78 0 79 1;
#X connect 79 0 75 0;
#X connect 80 0 74 0;
#X connect 80 0 74 1;
#X connect 81 0 80 1;
#X connect 82 0 81 0;
#X connect 83 0 57 1;
#X connect 83 0 58 1;
#X connect 84 0 81 0;
#X connect 85 0 69 0;
#X connect 86 0 70 0;
#X connect 87 0 47 0;
#X connect 88 0 50 0;
#X connect 89 0 71 0;
#X connect 90 0 230 0;
#X connect 93 0 106 0;
#X connect 94 0 145 0;
#X connect 95 0 96 0;
#X connect 96 0 97 0;
#X connect 97 0 101 0;
#X connect 97 0 102 0;
#X connect 97 1 103 0;
#X connect 97 1 104 0;
#X connect 98 0 107 0;
#X connect 99 0 133 0;
#X connect 100 0 98 1;
#X connect 100 0 113 1;
#X connect 101 0 110 1;
#X connect 102 0 109 1;
#X connect 103 0 109 1;
#X connect 104 0 110 1;
#X connect 105 0 98 0;
#X connect 105 0 113 0;
#X connect 107 0 109 0;
#X connect 108 0 110 0;
#X connect 109 0 111 0;
#X connect 110 0 112 0;
#X connect 111 0 115 1;
#X connect 112 0 115 1;
#X connect 113 0 108 0;
#X connect 114 0 115 0;
#X connect 114 0 146 0;
#X connect 115 0 106 0;
#X connect 116 0 143 0;
#X connect 117 0 142 0;
#X connect 118 0 92 0;
#X connect 119 0 92 0;
#X connect 120 0 92 0;
#X connect 121 0 92 0;
#X connect 122 0 92 0;
#X connect 123 0 92 0;
#X connect 124 0 92 0;
#X connect 125 0 92 0;
#X connect 126 0 92 0;
#X connect 127 0 92 0;
#X connect 128 0 130 0;
#X connect 128 1 131 0;
#X connect 128 2 132 0;
#X connect 130 0 129 0;
#X connect 131 0 129 0;
#X connect 132 0 129 0;
#X connect 133 0 100 0;
#X connect 134 0 136 0;
#X connect 135 0 134 0;
#X connect 136 0 134 1;
#X connect 136 0 178 0;
#X connect 137 0 134 0;
#X connect 137 0 82 0;
#X connect 137 0 139 0;
#X connect 137 0 140 0;
#X connect 137 0 141 0;
#X connect 138 0 137 0;
#X connect 139 0 59 0;
#X connect 140 0 58 0;
#X connect 141 0 57 0;
#X connect 142 0 144 0;
#X connect 143 0 117 0;
#X connect 144 0 118 0;
#X connect 144 1 119 0;
#X connect 144 2 120 0;
#X connect 144 3 121 0;
#X connect 144 4 122 0;
#X connect 144 5 123 0;
#X connect 144 6 124 0;
#X connect 144 7 125 0;
#X connect 144 8 126 0;
#X connect 144 9 127 0;
#X connect 145 0 95 0;
#X connect 145 0 99 0;
#X connect 145 0 114 0;
#X connect 146 0 142 1;
#X connect 147 0 223 1;
#X connect 148 0 223 1;
#X connect 149 0 223 1;
#X connect 150 0 151 0;
#X connect 150 0 152 0;
#X connect 150 1 153 0;
#X connect 150 1 154 0;
#X connect 150 2 155 0;
#X connect 150 2 156 0;
#X connect 151 0 138 0;
#X connect 152 0 164 0;
#X connect 152 0 174 0;
#X connect 153 0 164 0;
#X connect 154 0 138 0;
#X connect 154 0 174 0;
#X connect 155 0 174 0;
#X connect 156 0 138 0;
#X connect 156 0 164 0;
#X connect 157 0 85 0;
#X connect 157 0 86 0;
#X connect 157 0 89 0;
#X connect 158 0 41 0;
#X connect 158 0 42 0;
#X connect 158 0 43 0;
#X connect 159 0 45 0;
#X connect 159 0 46 0;
#X connect 159 0 85 0;
#X connect 160 0 162 0;
#X connect 161 0 160 0;
#X connect 162 0 160 1;
#X connect 162 0 166 0;
#X connect 163 0 160 0;
#X connect 163 0 82 0;
#X connect 163 0 139 0;
#X connect 163 0 140 0;
#X connect 163 0 141 0;
#X connect 164 0 163 0;
#X connect 165 0 157 0;
#X connect 165 1 158 0;
#X connect 165 2 159 0;
#X connect 166 0 165 0;
#X connect 167 0 85 0;
#X connect 167 0 86 0;
#X connect 167 0 89 0;
#X connect 168 0 44 0;
#X connect 168 0 45 0;
#X connect 168 0 46 0;
#X connect 169 0 86 0;
#X connect 169 0 89 0;
#X connect 169 0 42 0;
#X connect 170 0 172 0;
#X connect 171 0 170 0;
#X connect 172 0 170 1;
#X connect 172 0 176 0;
#X connect 173 0 170 0;
#X connect 173 0 82 0;
#X connect 173 0 141 0;
#X connect 173 0 140 0;
#X connect 173 0 139 0;
#X connect 174 0 173 0;
#X connect 175 0 167 0;
#X connect 175 1 169 0;
#X connect 175 2 168 0;
#X connect 175 3 169 0;
#X connect 176 0 175 0;
#X connect 177 0 19 0;
#X connect 177 1 21 0;
#X connect 177 2 22 0;
#X connect 177 3 19 0;
#X connect 178 0 177 0;
#X connect 180 0 179 0;
#X connect 181 0 179 0;
#X connect 182 0 179 0;
#X connect 183 0 189 0;
#X connect 184 0 189 0;
#X connect 185 0 189 0;
#X connect 186 0 190 0;
#X connect 187 0 190 0;
#X connect 188 0 190 0;
#X connect 191 0 192 0;
#X connect 192 0 197 0;
#X connect 193 0 192 1;
#X connect 194 0 196 0;
#X connect 195 0 196 1;
#X connect 196 0 198 0;
#X connect 197 0 218 0;
#X connect 198 0 60 0;
#X connect 199 0 202 0;
#X connect 200 0 199 0;
#X connect 201 0 199 1;
#X connect 202 0 203 0;
#X connect 203 0 31 0;
#X connect 203 1 33 0;
#X connect 203 2 34 0;
#X connect 204 0 99 1;
#X connect 205 0 99 1;
#X connect 206 0 99 1;
#X connect 207 0 146 1;
#X connect 208 0 146 1;
#X connect 209 0 146 1;
#X connect 210 0 211 0;
#X connect 210 1 212 0;
#X connect 210 2 213 0;
#X connect 211 0 227 0;
#X connect 212 0 228 0;
#X connect 213 0 229 0;
#X connect 214 0 204 0;
#X connect 214 1 205 0;
#X connect 214 2 206 0;
#X connect 215 0 207 0;
#X connect 215 1 208 0;
#X connect 215 2 209 0;
#X connect 216 0 217 0;
#X connect 216 0 219 0;
#X connect 217 0 221 0;
#X connect 218 0 150 0;
#X connect 219 0 220 0;
#X connect 220 0 222 0;
#X connect 221 0 218 1;
#X connect 222 0 218 1;
#X connect 223 0 35 0;
#X connect 224 0 223 0;
#X connect 225 0 226 0;
#X connect 226 0 224 0;
#X connect 227 0 128 0;
#X connect 228 0 215 0;
#X connect 229 0 214 0;
#X connect 230 0 75 1;
#X restore 2013 226 pd soundbox;
#X obj 1003 214 array get test;
#X obj 1513 888 array set test;
#X floatatom 1495 834 5 0 0 0 - - -;
#X floatatom 1553 834 5 0 0 0 - - -;
#X obj 1787 763 bng 15 250 50 0 empty empty empty 17 7 0 10 -262144
-1 -1;
#X obj 1737 830 array define test 6;
#X floatatom 48 882 5 0 0 0 - - -;
#X floatatom 115 881 5 0 0 0 - - -;
#X floatatom 171 879 5 0 0 0 - - -;
#X floatatom 222 884 5 0 0 0 - - -;
#X floatatom 275 882 5 0 0 0 - - -;
#X text 19 909 test output;
#X obj 57 785 bng 15 250 50 0 empty empty empty 17 7 0 10 -262144 -1
-1;
#X obj 118 782 bng 15 250 50 0 empty empty empty 17 7 0 10 -262144
-1 -1;
#X text 51 742 set go test;
#X floatatom 354 884 5 0 0 0 - - -;
#X floatatom 425 884 5 0 0 0 - - -;
#X text 478 885 resultant weights 1-6;
#X text 645 827 split;
#X obj 90 831 splitNeuron, f 66;
#X text 1304 589 send in float value and onset;
#X obj 1765 711 loadbang;
#X obj 909 508 s sound;
#X obj 987 514 s density;
#X obj 1096 514 s special;
#X obj 1457 208 hsl 128 15 0 1 0 0 empty empty splitvalue -2 -8 0 15
-4034 -1 -1 0 1;
#X floatatom 1463 248 5 0 3 2 - - -;
#X obj 1435 283 moses 0.33;
#X obj 1482 317 moses 0.66;
#X msg 1413 325 0;
#X msg 1481 366 1;
#X msg 1546 363 2;
#X obj 921 596 r so;
#X obj 986 599 r de;
#X obj 1055 603 r sp;
#X obj 1121 602 r split;
#X obj 1218 514 s split;
#X obj 1005 65 bng 25 250 50 0 empty retrain retrain 17 7 0 20 -258113
-33289 -1;
#X obj 1014 162 bng 15 250 50 0 empty empty empty 17 7 0 10 -262144
-1 -1;
#X obj 1060 95 del 500;
#X obj 1042 130 del 7500;
#X floatatom 921 622 5 0 0 0 - - -;
#X floatatom 986 625 5 0 0 0 - - -;
#X floatatom 1055 629 5 0 0 0 - - -;
#X floatatom 1121 628 5 0 0 0 - - -;
#X obj 1656 361 netreceive 32000;
#X msg 1656 387 \; sine_off bang \;;
#X obj 1349 713 hsl 200 25 0 127 0 0 empty inputValue inputValue -2
-8 0 20 -258113 -1 -1 0 1;
#X obj 1553 764 hsl 200 25 0 127 0 0 empty indexValue indexValue -2
-8 0 20 -258113 -1 -1 0 1;
#X obj 1214 762 array get test;
#X obj 1224 804 print;
#X obj 1226 719 bng 15 250 50 0 empty empty empty 17 7 0 10 -262144
-1 -1;
#X connect 0 0 65 0;
#X connect 6 0 39 0;
#X connect 7 0 39 1;
#X connect 12 0 66 0;
#X connect 18 0 40 0;
#X connect 19 0 40 1;
#X connect 24 0 67 0;
#X connect 30 0 41 0;
#X connect 31 0 41 1;
#X connect 39 0 0 0;
#X connect 39 1 1 0;
#X connect 39 2 2 0;
#X connect 39 3 3 0;
#X connect 39 4 4 0;
#X connect 39 5 9 0;
#X connect 39 6 10 0;
#X connect 40 0 12 0;
#X connect 40 1 13 0;
#X connect 40 2 14 0;
#X connect 40 3 15 0;
#X connect 40 4 16 0;
#X connect 40 5 21 0;
#X connect 40 6 22 0;
#X connect 41 0 24 0;
#X connect 41 1 25 0;
#X connect 41 2 26 0;
#X connect 41 3 27 0;
#X connect 41 4 28 0;
#X connect 41 5 33 0;
#X connect 41 6 34 0;
#X connect 43 0 39 2;
#X connect 43 0 40 2;
#X connect 43 0 41 2;
#X connect 43 0 62 2;
#X connect 45 0 44 0;
#X connect 46 0 44 1;
#X connect 47 0 48 0;
#X connect 49 0 68 0;
#X connect 55 0 62 0;
#X connect 56 0 62 1;
#X connect 62 0 49 0;
#X connect 62 1 50 0;
#X connect 62 2 51 0;
#X connect 62 3 52 0;
#X connect 62 4 53 0;
#X connect 62 5 58 0;
#X connect 62 6 59 0;
#X connect 64 0 47 0;
#X connect 68 0 69 0;
#X connect 69 0 70 0;
#X connect 70 0 72 0;
#X connect 70 1 71 0;
#X connect 71 0 73 0;
#X connect 71 1 74 0;
#X connect 72 0 79 0;
#X connect 73 0 79 0;
#X connect 74 0 79 0;
#X connect 75 0 84 0;
#X connect 76 0 85 0;
#X connect 77 0 86 0;
#X connect 78 0 87 0;
#X connect 80 0 6 0;
#X connect 80 0 82 0;
#X connect 80 0 83 0;
#X connect 80 0 18 0;
#X connect 80 0 30 0;
#X connect 80 0 55 0;
#X connect 81 0 43 0;
#X connect 82 0 7 0;
#X connect 82 0 19 0;
#X connect 82 0 31 0;
#X connect 82 0 56 0;
#X connect 83 0 81 0;
#X connect 88 0 89 0;
#X connect 90 0 45 0;
#X connect 91 0 46 0;
#X connect 92 0 93 0;
#X connect 94 0 92 0;
