#N canvas -9 -9 1920 976 12;
#X obj 165 384 bng 15 250 50 0 empty empty empty 17 7 0 10 -262144
-1 -1;
#X obj 1795 660 bng 15 250 50 0 empty empty empty 17 7 0 10 -262144
-1 -1;
#X floatatom 242 35 5 0 0 2 w12 w012 w12;
#X floatatom 287 36 5 0 0 2 w22 w022 w22;
#X floatatom 335 36 5 0 0 2 w32 w032 w32;
#X obj 24 431 random 101;
#X obj 24 454 expr ($f1 - 50.) / 50;
#X obj 72 487 random 101;
#X obj 72 510 expr ($f1 - 50.) / 50;
#X obj 182 433 random 101;
#X obj 182 456 expr ($f1 - 50.) / 50;
#X obj 437 280 bng 15 250 50 0 empty empty empty 17 7 0 10 -262144
-1 -1;
#X obj 564 280 bng 15 250 50 0 empty empty empty 17 7 0 10 -262144
-1 -1;
#X obj 689 278 bng 15 250 50 0 empty empty empty 17 7 0 10 -262144
-1 -1;
#X obj 824 277 bng 15 250 50 0 empty empty empty 17 7 0 10 -262144
-1 -1;
#X obj 617 142 f;
#X obj 664 139 + 1;
#X floatatom 616 172 5 0 0 0 - - -;
#X msg 552 140 0;
#X floatatom 751 175 5 0 0 0 - - -;
#X msg 833 131 0;
#X obj 616 65 tgl 15 0 empty empty empty 17 7 0 10 -262144 -1 -1 0
1;
#X text 1649 654 init arrays;
#X obj 1776 624 loadbang;
#X text 38 385 set rand weights;
#X text 561 23 train- 10 \, 0 times;
#X text 845 87 outputs left if less than 10 \, 0;
#X text 545 159 reset;
#X floatatom 384 36 5 0 0 2 w42 w042 w42;
#X obj 235 487 random 101;
#X obj 235 510 expr ($f1 - 50.) / 50;
#X obj 436 399 bng 15 250 50 0 empty empty empty 17 7 0 10 -262144
-1 -1;
#X obj 563 399 bng 15 250 50 0 empty empty empty 17 7 0 10 -262144
-1 -1;
#X obj 234 182 inlet;
#X obj 289 193 inlet;
#X obj 1104 533 outlet;
#X obj 1162 533 outlet;
#X obj 1220 531 outlet;
#X obj 1277 530 outlet;
#X obj 18 589 random 101;
#X obj 18 612 expr ($f1 - 50.) / 50;
#X obj 66 645 random 101;
#X obj 66 668 expr ($f1 - 50.) / 50;
#X floatatom 240 104 5 0 0 2 w52 w052 w52;
#X floatatom 285 105 5 0 0 2 w62 w062 w62;
#X obj 751 97 moses 50000;
#X obj 575 95 metro 0.1;
#X text 1447 106 training = 6 * 4 = 24 arrays;
#X text 1449 77 0 \, 0.33 \, 0.66 \, 1;
#X text 1449 137 recurrant \, feeds into itself \, so learns more the
more you play \, +6 = 30 arrays;
#X obj 1339 532 outlet;
#X obj 1396 531 outlet;
#X text 791 176 0 to 23;
#X obj 243 268 bng 15 250 50 0 empty empty empty 17 7 0 10 -262144
-1 -1;
#X obj 24 50 array set inputs12;
#X obj 24 111 array set inputs22;
#X obj 25 171 array set inputs32;
#X obj 26 230 array set inputs42;
#X obj 23 291 array set inputs52;
#X obj 23 352 array set inputs62;
#X obj 1639 685 array define inputs12 7;
#X obj 1641 713 array define inputs22 7;
#X obj 1639 736 array define inputs32 7;
#X obj 1639 763 array define inputs42 7;
#X obj 1639 800 array define inputs52 7;
#X obj 1642 826 array define inputs62 7;
#X msg 26 24 0 0 0 1 0 0 0;
#X msg 29 87 0 0.3 0.3 0.3 0.6 0.3 0.3;
#X msg 27 145 0.3 0.6 0.6 0 0.3 0.6 0.6;
#X msg 30 205 0.6 0 1 0.6 0 1 1;
#X msg 25 266 0.5 0.5 0 0 0.5 0 0.75;
#X msg 24 326 0 0 0.5 0.5 0 0.5 0.25;
#X text 1052 721 inputs12;
#X obj 24 477 s w012;
#X obj 72 533 s w022;
#X obj 182 479 s w032;
#X obj 236 533 s w042;
#X obj 18 635 s w052;
#X obj 66 691 s w062;
#X obj 433 309 array get inputs12;
#X obj 564 306 array get inputs22;
#X obj 691 306 array get inputs32;
#X obj 819 307 array get inputs42;
#X obj 432 428 array get inputs52;
#X obj 563 424 array get inputs62;
#X obj 1100 492 r w12;
#X obj 1162 492 r w22;
#X obj 1221 494 r w32;
#X obj 1276 494 r w42;
#X obj 1341 495 r w52;
#X obj 1395 495 r w62;
#X obj 1131 189 list split 3;
#X obj 1120 217 list split 2;
#X obj 1119 252 list split 1;
#X text 1214 281 1 2;
#X floatatom 1119 283 5 0 0 0 - - -;
#X floatatom 1161 285 5 0 0 0 - - -;
#X floatatom 1222 253 5 0 0 0 - - -;
#X text 1265 253 3;
#X obj 1106 336 *;
#X obj 1163 338 *;
#X obj 1217 341 *;
#X floatatom 1226 217 5 0 0 0 - - -;
#X floatatom 1039 487 5 0 0 0 - - -;
#X text 1271 216 4;
#X obj 1130 149 list split 4;
#X obj 1372 302 *;
#X obj 1106 31 inlet;
#X obj 1030 536 outlet;
#X obj 1128 109 list split 5;
#X obj 1130 73 list split 6;
#X obj 1012 433 expr pow(pow(2.718282 \, (($f1 + $f2 + $f3 + $f4 +
$f5 + $f6) * -1)) + 1 \, -1);
#X obj 1253 155 *;
#X obj 1242 115 *;
#X obj 1286 112 r w62;
#X obj 1298 152 r w52;
#X obj 1124 307 r w12;
#X obj 1182 309 r w22;
#X obj 1235 312 r w32;
#X obj 1388 269 r w42;
#X obj 435 355 adjust62;
#X obj 577 355 adjust62;
#X obj 696 357 adjust62;
#X obj 825 347 adjust62;
#X obj 434 473 adjust62;
#X obj 568 474 adjust62;
#X obj 752 130 mod 6;
#X obj 475 222 sel 0 1 2 3 4 5, f 51;
#X connect 0 0 5 0;
#X connect 0 0 9 0;
#X connect 0 0 7 0;
#X connect 0 0 29 0;
#X connect 0 0 39 0;
#X connect 0 0 41 0;
#X connect 1 0 60 0;
#X connect 1 0 61 0;
#X connect 1 0 62 0;
#X connect 1 0 63 0;
#X connect 1 0 64 0;
#X connect 1 0 65 0;
#X connect 5 0 6 0;
#X connect 6 0 73 0;
#X connect 7 0 8 0;
#X connect 8 0 74 0;
#X connect 9 0 10 0;
#X connect 10 0 75 0;
#X connect 11 0 79 0;
#X connect 12 0 80 0;
#X connect 13 0 81 0;
#X connect 14 0 82 0;
#X connect 15 0 16 0;
#X connect 15 0 17 0;
#X connect 16 0 15 1;
#X connect 17 0 45 0;
#X connect 18 0 15 0;
#X connect 19 0 127 0;
#X connect 20 0 21 0;
#X connect 21 0 46 0;
#X connect 23 0 1 0;
#X connect 29 0 30 0;
#X connect 30 0 76 0;
#X connect 31 0 83 0;
#X connect 32 0 84 0;
#X connect 33 0 18 0;
#X connect 33 0 0 0;
#X connect 33 0 53 0;
#X connect 34 0 21 0;
#X connect 39 0 40 0;
#X connect 40 0 77 0;
#X connect 41 0 42 0;
#X connect 42 0 78 0;
#X connect 45 0 126 0;
#X connect 45 1 20 0;
#X connect 46 0 15 0;
#X connect 53 0 66 0;
#X connect 53 0 68 0;
#X connect 53 0 69 0;
#X connect 53 0 70 0;
#X connect 53 0 71 0;
#X connect 53 0 67 0;
#X connect 66 0 54 0;
#X connect 67 0 55 0;
#X connect 68 0 56 0;
#X connect 69 0 57 0;
#X connect 70 0 58 0;
#X connect 71 0 59 0;
#X connect 79 0 120 0;
#X connect 80 0 121 0;
#X connect 81 0 122 0;
#X connect 82 0 123 0;
#X connect 83 0 124 0;
#X connect 84 0 125 0;
#X connect 85 0 35 0;
#X connect 86 0 36 0;
#X connect 87 0 37 0;
#X connect 88 0 38 0;
#X connect 89 0 50 0;
#X connect 90 0 51 0;
#X connect 91 0 92 0;
#X connect 91 1 102 0;
#X connect 92 0 93 0;
#X connect 92 1 97 0;
#X connect 93 0 95 0;
#X connect 93 1 96 0;
#X connect 95 0 99 0;
#X connect 96 0 100 0;
#X connect 97 0 101 0;
#X connect 99 0 111 0;
#X connect 100 0 111 1;
#X connect 101 0 111 2;
#X connect 102 0 106 0;
#X connect 103 0 108 0;
#X connect 105 0 91 0;
#X connect 105 1 112 0;
#X connect 106 0 111 3;
#X connect 107 0 110 0;
#X connect 109 0 105 0;
#X connect 109 1 113 0;
#X connect 110 0 109 0;
#X connect 111 0 103 0;
#X connect 112 0 111 4;
#X connect 113 0 111 5;
#X connect 114 0 113 1;
#X connect 115 0 112 1;
#X connect 116 0 99 1;
#X connect 117 0 100 1;
#X connect 118 0 101 1;
#X connect 119 0 106 1;
#X connect 126 0 19 0;
#X connect 127 0 11 0;
#X connect 127 1 12 0;
#X connect 127 2 13 0;
#X connect 127 3 14 0;
#X connect 127 4 31 0;
#X connect 127 5 32 0;
