#N canvas -9 -9 1920 976 12;
#X obj 165 384 bng 15 250 50 0 empty empty empty 17 7 0 10 -262144
-1 -1;
#X obj 1795 660 bng 15 250 50 0 empty empty empty 17 7 0 10 -262144
-1 -1;
#X floatatom 242 35 5 0 0 2 w11 w011 w11;
#X floatatom 287 36 5 0 0 2 w21 w021 w21;
#X floatatom 335 36 5 0 0 2 w31 w031 w31;
#X obj 24 431 random 101;
#X obj 24 454 expr ($f1 - 50.) / 50;
#X obj 72 487 random 101;
#X obj 72 510 expr ($f1 - 50.) / 50;
#X obj 182 433 random 101;
#X obj 182 456 expr ($f1 - 50.) / 50;
#X obj 437 280 bng 15 250 50 0 empty empty empty 17 7 0 10 -262144
-1 -1;
#X obj 564 280 bng 15 250 50 0 empty empty empty 17 7 0 10 -262144
-1 -1;
#X obj 689 278 bng 15 250 50 0 empty empty empty 17 7 0 10 -262144
-1 -1;
#X obj 824 277 bng 15 250 50 0 empty empty empty 17 7 0 10 -262144
-1 -1;
#X obj 617 142 f;
#X obj 664 139 + 1;
#X floatatom 616 172 5 0 0 0 - - -;
#X msg 552 140 0;
#X floatatom 751 175 5 0 0 0 - - -;
#X msg 833 131 0;
#X obj 616 65 tgl 15 0 empty empty empty 17 7 0 10 -262144 -1 -1 0
1;
#X obj 1131 189 list split 3;
#X obj 1120 217 list split 2;
#X obj 1119 252 list split 1;
#X text 1214 281 1 2;
#X floatatom 1119 283 5 0 0 0 - - -;
#X floatatom 1161 285 5 0 0 0 - - -;
#X floatatom 1222 253 5 0 0 0 - - -;
#X text 1265 253 3;
#X obj 1106 336 *;
#X obj 1163 338 *;
#X obj 1217 341 *;
#X floatatom 1226 217 5 0 0 0 - - -;
#X floatatom 1039 487 5 0 0 0 - - -;
#X text 1649 654 init arrays;
#X obj 1776 624 loadbang;
#X text 38 385 set rand weights;
#X text 561 23 train- 10 \, 0 times;
#X text 845 87 outputs left if less than 10 \, 0;
#X text 545 159 reset;
#X floatatom 384 36 5 0 0 2 w41 w041 w41;
#X obj 235 487 random 101;
#X obj 235 510 expr ($f1 - 50.) / 50;
#X text 1271 216 4;
#X obj 1130 149 list split 4;
#X obj 1372 302 *;
#X obj 436 399 bng 15 250 50 0 empty empty empty 17 7 0 10 -262144
-1 -1;
#X obj 563 399 bng 15 250 50 0 empty empty empty 17 7 0 10 -262144
-1 -1;
#X obj 234 182 inlet;
#X obj 289 193 inlet;
#X obj 1106 31 inlet;
#X obj 1030 536 outlet;
#X obj 1104 533 outlet;
#X obj 1162 533 outlet;
#X obj 1220 531 outlet;
#X obj 1277 530 outlet;
#X obj 18 589 random 101;
#X obj 18 612 expr ($f1 - 50.) / 50;
#X obj 66 645 random 101;
#X obj 66 668 expr ($f1 - 50.) / 50;
#X floatatom 240 104 5 0 0 2 w51 w051 w51;
#X floatatom 285 105 5 0 0 2 w61 w061 w61;
#X obj 751 97 moses 50000;
#X obj 575 95 metro 0.1;
#X text 1447 106 training = 6 * 4 = 24 arrays;
#X text 1449 77 0 \, 0.33 \, 0.66 \, 1;
#X text 1449 137 recurrant \, feeds into itself \, so learns more the
more you play \, +6 = 30 arrays;
#X obj 1339 532 outlet;
#X obj 1396 531 outlet;
#X text 791 176 0 to 23;
#X obj 243 268 bng 15 250 50 0 empty empty empty 17 7 0 10 -262144
-1 -1;
#X msg 26 24 0.3 0 0 1 0 0 0;
#X msg 29 87 0.6 1 0.3 0.6 1 0.6 0.3;
#X msg 27 145 0 0.6 0.6 0.3 0.6 1 0.6;
#X msg 29 204 1 0.3 1 0 0.3 0.3 1;
#X msg 25 266 0 0.5 0.5 0.5 0 0 0.25;
#X msg 23 326 0.5 0 0 0 0.5 0.5 0.75;
#X obj 24 50 array set inputs11;
#X obj 24 111 array set inputs21;
#X obj 25 171 array set inputs31;
#X obj 26 230 array set inputs41;
#X obj 23 291 array set inputs51;
#X obj 23 352 array set inputs61;
#X obj 433 309 array get inputs11;
#X obj 564 306 array get inputs21;
#X obj 691 306 array get inputs31;
#X obj 819 307 array get inputs41;
#X obj 432 428 array get inputs51;
#X obj 563 424 array get inputs61;
#X obj 1639 685 array define inputs11 7;
#X obj 1642 712 array define inputs21 7;
#X obj 1639 736 array define inputs31 7;
#X obj 1639 763 array define inputs41 7;
#X obj 1639 800 array define inputs51 7;
#X obj 1642 826 array define inputs61 7;
#X obj 1100 492 r w11;
#X obj 1162 492 r w21;
#X obj 1222 494 r w31;
#X obj 1276 494 r w41;
#X obj 1341 495 r w51;
#X obj 1395 495 r w61;
#X obj 1124 307 r w11;
#X obj 1182 309 r w21;
#X obj 1235 312 r w31;
#X obj 1388 269 r w41;
#X obj 1128 109 list split 5;
#X obj 1130 73 list split 6;
#X obj 1012 433 expr pow(pow(2.718282 \, (($f1 + $f2 + $f3 + $f4 +
$f5 + $f6) * -1)) + 1 \, -1);
#X obj 1253 155 *;
#X obj 1297 152 r w51;
#X obj 1242 115 *;
#X obj 1286 112 r w61;
#X text 1077 747 inputs11;
#X obj 435 355 adjust61;
#X obj 569 356 adjust61;
#X obj 696 357 adjust61;
#X obj 825 347 adjust61;
#X obj 434 473 adjust61;
#X obj 568 474 adjust61;
#X obj 24 476 s w011;
#X obj 72 533 s w021;
#X obj 182 479 s w031;
#X obj 235 533 s w041;
#X obj 18 635 s w051;
#X obj 66 691 s w061;
#X obj 752 129 mod 6;
#X obj 475 222 sel 0 1 2 3 4 5, f 51;
#X connect 0 0 5 0;
#X connect 0 0 9 0;
#X connect 0 0 7 0;
#X connect 0 0 42 0;
#X connect 0 0 57 0;
#X connect 0 0 59 0;
#X connect 1 0 90 0;
#X connect 1 0 91 0;
#X connect 1 0 92 0;
#X connect 1 0 93 0;
#X connect 1 0 94 0;
#X connect 1 0 95 0;
#X connect 5 0 6 0;
#X connect 6 0 120 0;
#X connect 7 0 8 0;
#X connect 8 0 121 0;
#X connect 9 0 10 0;
#X connect 10 0 122 0;
#X connect 11 0 84 0;
#X connect 12 0 85 0;
#X connect 13 0 86 0;
#X connect 14 0 87 0;
#X connect 15 0 16 0;
#X connect 15 0 17 0;
#X connect 16 0 15 1;
#X connect 17 0 63 0;
#X connect 18 0 15 0;
#X connect 19 0 127 0;
#X connect 20 0 21 0;
#X connect 21 0 64 0;
#X connect 22 0 23 0;
#X connect 22 1 33 0;
#X connect 23 0 24 0;
#X connect 23 1 28 0;
#X connect 24 0 26 0;
#X connect 24 1 27 0;
#X connect 26 0 30 0;
#X connect 27 0 31 0;
#X connect 28 0 32 0;
#X connect 30 0 108 0;
#X connect 31 0 108 1;
#X connect 32 0 108 2;
#X connect 33 0 46 0;
#X connect 34 0 52 0;
#X connect 36 0 1 0;
#X connect 42 0 43 0;
#X connect 43 0 123 0;
#X connect 45 0 22 0;
#X connect 45 1 109 0;
#X connect 46 0 108 3;
#X connect 47 0 88 0;
#X connect 48 0 89 0;
#X connect 49 0 18 0;
#X connect 49 0 0 0;
#X connect 49 0 71 0;
#X connect 50 0 21 0;
#X connect 51 0 107 0;
#X connect 57 0 58 0;
#X connect 58 0 124 0;
#X connect 59 0 60 0;
#X connect 60 0 125 0;
#X connect 63 0 126 0;
#X connect 63 1 20 0;
#X connect 64 0 15 0;
#X connect 71 0 72 0;
#X connect 71 0 74 0;
#X connect 71 0 75 0;
#X connect 71 0 76 0;
#X connect 71 0 77 0;
#X connect 71 0 73 0;
#X connect 72 0 78 0;
#X connect 73 0 79 0;
#X connect 74 0 80 0;
#X connect 75 0 81 0;
#X connect 76 0 82 0;
#X connect 77 0 83 0;
#X connect 84 0 114 0;
#X connect 85 0 115 0;
#X connect 86 0 116 0;
#X connect 87 0 117 0;
#X connect 88 0 118 0;
#X connect 89 0 119 0;
#X connect 96 0 53 0;
#X connect 97 0 54 0;
#X connect 98 0 55 0;
#X connect 99 0 56 0;
#X connect 100 0 68 0;
#X connect 101 0 69 0;
#X connect 102 0 30 1;
#X connect 103 0 31 1;
#X connect 104 0 32 1;
#X connect 105 0 46 1;
#X connect 106 0 45 0;
#X connect 106 1 111 0;
#X connect 107 0 106 0;
#X connect 108 0 34 0;
#X connect 109 0 108 4;
#X connect 110 0 109 1;
#X connect 111 0 108 5;
#X connect 112 0 111 1;
#X connect 126 0 19 0;
#X connect 127 0 11 0;
#X connect 127 1 12 0;
#X connect 127 2 13 0;
#X connect 127 3 14 0;
#X connect 127 4 47 0;
#X connect 127 5 48 0;
